<mxfile host="65bd71144e">
    <diagram id="mI3celgoxT6OeG6J15Qv" name="Page-1">
        <mxGraphModel dx="1525" dy="484" grid="1" gridSize="10" guides="1" tooltips="1" connect="1" arrows="1" fold="1" page="1" pageScale="1" pageWidth="827" pageHeight="1169" math="0" shadow="0">
            <root>
                <mxCell id="0"/>
                <mxCell id="1" parent="0"/>
                <mxCell id="17" value="" style="rounded=0;whiteSpace=wrap;html=1;" vertex="1" parent="1">
                    <mxGeometry x="-10" y="50" width="680" height="420" as="geometry"/>
                </mxCell>
                <mxCell id="20" style="edgeStyle=orthogonalEdgeStyle;html=1;startArrow=classic;startFill=1;" edge="1" parent="1" source="2" target="19">
                    <mxGeometry relative="1" as="geometry"/>
                </mxCell>
                <mxCell id="2" value="NFC&amp;nbsp;" style="ellipse;whiteSpace=wrap;html=1;aspect=fixed;" vertex="1" parent="1">
                    <mxGeometry x="90" y="110" width="80" height="80" as="geometry"/>
                </mxCell>
                <mxCell id="4" style="edgeStyle=none;html=1;entryX=1;entryY=0.5;entryDx=0;entryDy=0;" edge="1" parent="1" source="3" target="2">
                    <mxGeometry relative="1" as="geometry"/>
                </mxCell>
                <mxCell id="15" style="edgeStyle=orthogonalEdgeStyle;html=1;startArrow=classic;startFill=1;" edge="1" parent="1" source="3" target="14">
                    <mxGeometry relative="1" as="geometry"/>
                </mxCell>
                <mxCell id="21" style="edgeStyle=orthogonalEdgeStyle;html=1;entryX=0.5;entryY=0;entryDx=0;entryDy=0;startArrow=classic;startFill=1;" edge="1" parent="1" source="3" target="19">
                    <mxGeometry relative="1" as="geometry">
                        <Array as="points">
                            <mxPoint x="340" y="263"/>
                            <mxPoint x="230" y="263"/>
                        </Array>
                    </mxGeometry>
                </mxCell>
                <mxCell id="3" value="" style="verticalLabelPosition=bottom;html=1;verticalAlign=top;align=center;strokeColor=none;fillColor=#00BEF2;shape=mxgraph.azure.mobile;pointerEvents=1;" vertex="1" parent="1">
                    <mxGeometry x="310" y="115" width="60" height="70" as="geometry"/>
                </mxCell>
                <mxCell id="11" value="1) tapping nfc" style="text;html=1;strokeColor=none;fillColor=none;align=center;verticalAlign=middle;whiteSpace=wrap;rounded=0;" vertex="1" parent="1">
                    <mxGeometry x="190" y="110" width="100" height="30" as="geometry"/>
                </mxCell>
                <mxCell id="12" value="2) update on platform&amp;nbsp;" style="text;html=1;strokeColor=none;fillColor=none;align=center;verticalAlign=middle;whiteSpace=wrap;rounded=0;" vertex="1" parent="1">
                    <mxGeometry x="30" y="230" width="90" height="30" as="geometry"/>
                </mxCell>
                <mxCell id="13" value="3) get info about tapped product" style="text;html=1;strokeColor=none;fillColor=none;align=center;verticalAlign=middle;whiteSpace=wrap;rounded=0;" vertex="1" parent="1">
                    <mxGeometry x="250" y="280" width="110" height="30" as="geometry"/>
                </mxCell>
                <mxCell id="14" value="" style="shape=cylinder3;whiteSpace=wrap;html=1;boundedLbl=1;backgroundOutline=1;size=15;" vertex="1" parent="1">
                    <mxGeometry x="540" y="110" width="60" height="80" as="geometry"/>
                </mxCell>
                <mxCell id="16" value="4) retrieve recomended / matching products" style="text;html=1;strokeColor=none;fillColor=none;align=center;verticalAlign=middle;whiteSpace=wrap;rounded=0;" vertex="1" parent="1">
                    <mxGeometry x="380" y="170" width="140" height="30" as="geometry"/>
                </mxCell>
                <mxCell id="18" value="Recomendation database" style="text;html=1;strokeColor=none;fillColor=none;align=center;verticalAlign=middle;whiteSpace=wrap;rounded=0;" vertex="1" parent="1">
                    <mxGeometry x="520" y="210" width="110" height="30" as="geometry"/>
                </mxCell>
                <mxCell id="19" value="" style="shape=image;verticalLabelPosition=bottom;labelBackgroundColor=default;verticalAlign=top;aspect=fixed;imageAspect=0;image=data:image/png,iVBORw0KGgoAAAANSUhEUgAAAvgAAADACAYAAABxlBcKAAAACXBIWXMAACxLAAAsSwGlPZapAAAAAXNSR0IArs4c6QAAAARnQU1BAACxjwv8YQUAALPESURBVHgB7V0HoBTV1T7nzuzuK/QqHRQbxhaMDQvGijEm0WA0iSUWVJqgWBOTl6ZiRRALMdEYS5TfriF2Ym/YxYIFEER6f2135v5n+p22O7tv970n3g/2zcyd2+bOzJ3vnHvuuQASEhISEhISEhISEhISEhISEhISEhISEhISEhISEhISEhISEhISEhISEhISEhISEhISEhISEhISEhISEhISEhISEhISEhISEhISEhISEhISEhISEhISEhISEhISEhISEhISEhISEhISEhISEhISEhISEhISEhISEhISEhISEhISEhISEhISEhISEhISEhISEhISEhISEhISEhISEhISEhISEhISEhISEhISEhISEhISEhISEhISEhISEhISEhISEhISEhISEhISEhISEhISEhISEhISEhISEhISEhISEhISEhISEhISEhISEhISEhISEhISEhISEhISEhISEhISEhISEhIS5QWChISEhISEhISEibqe52/FkB3Cke9Av34KYoro0iYEPh8Q38xt99rrdXPn5kBCoh1DEnwJCQkJCQmJ7zqQiP3hROB/T7+9iMwzgyEhWkQJzX8GODCEr0GHB/imhj9dsmnGSpCQaIeQBF9CQkJCQkLiO4uLOl/UNZPms4gR/RxtVkQEH5A5JAltkg8uyTd2OPB1RPYnX7z0qttBQqKdQQEJCQkJCQkJie8g6ra6aDBT+ItE7Pczjj2Cj5b2nqMQZhF/54BU/FW089NDOoxQntn00nMgIdGOIDX4EhISEhISEq2OsT0vGqrrTd2c45RwTueKgjpkjH01XyaqdZ7rPMMU5iotiZivuHLVlW/mS/rbbucOYGrqaSJC25nkXSDy5hZJi48oaO5tgu8j/DY4/+1Fy666DMqMW4dM3tPMHqobdWzgoQhZtT4YpKLC09jYADX+cN6saryxQXOOqzFdf9yS6xpAYouEChISEhISEhISrQyezV3EUDnNR5SNfSLVJlNndjyAgImMt4PmSQQm2COY8Ri8Tpu9IA+Ymv4HEfbtvAoFKuLa3YeBgSRU5z9f2eeiNy9YdsWTUEZoPPWaWR7mgPG0r3yzDqq1ZRgUQmhwodkWUpy4RpyaWjcPneN5tLkWJLZIMJCQkJCQkJCQaIfAwNZ3Dj2tu2A5kwi/73XBr4gIHxIsTNTeC8H2lsfWDww+xfgNU3tc0BHKDGuiL/rKxFDdhHOIbn19ghMErkkywC0a8vZKSEhISEhItDowYh8RI+OFlOtgB/Lo+PlQB3WkCscpheKLJN+Nib4jf3oO22KajYYyAhOcDwtBMdIOxuxLbJGQBF9CQkJCQkKiTYAlnnMjhGx3CkPr0bQPbXYLZiUeRGnNIUKD7523YhCpGgvlBIYPxSCeL63I8zF8ThLALRvy/kpISEhISEi0CZJy8xABN7YOuy3SPAeZ9qNQvj7NfNg8RzyI1po7RJrvPn2ri3tChcAD5RmCCBPrjrb3H+SBAQfhmmwBRmLLhiT4EhISEhISEm2OOPMcceva6wjHGGE2kw8ccLcgUQ4fJNfeB8A0VdsfKoRCk34N8EiBJ2jDLxn+lg5J8CUkJCQkJCTaHJz7SXSUllx0qWMKBDG8uwC52SZy0i54WvFi6K+PLFN9dJ33gTIBwVtDN67OSUKdUQlJ6787kARfQkJCQkJCos0QNcG2IBHl0XkkRJUvXcg+PYJQI4TCoicJGyYz2AUqAHGicdTUA7TtlhzXmHGQ2vvvBiTBl5CQkJCQkGh1iAQkjtwHSawV197htra9aLKPWTdepGue4HFi8xynfhuhAsCYgKDxTSiOz0Y/Ji+JLQ6S4EtISEhISEi0OnQoHejY0Qhq7cSklcOXkR4knXx8Nv0eQ47U2Iv02t7lGiyGMgMhWnsfrIfo+97bhs1zuGT4WzzkSrZlwGAYWdUAAzqpma+78Or6WkVBFTDHQatpzDXUbGxsrF23FnYiib6uJf2ZhISEhITEFoUonskhGVmP1sAXTqsg/5DKGBlJ8kNkPn5xKx/hFoQMpqqfQQUQbJd4+3seSCUeotTif0cgCX6R6A+jqzXocThnfFfQ1R1obHCPRsBBNESY0ps7A2/yBvTQfs+qEPSt+MrNAGd/iIx9AqC9wnT+3lK45VUoduxPQkJCQkJiC0CcCUGQQIsnfFroiDgOvc1rnsDw/7iuj4Wg3x76kLOoHLGoz/SytV+l50MFELa3D57kodGMkNYfQTL77wgkwS8M7APjBiLTTuFc+aHG8QcUVo2GLt5+U4yZ/9ZsfmtrHZtJrY7B6DMAOyIqe5P0vDftn6zTqT4wfh1FmaNj9uFmjf93LcxaDxISEhISEt9xxJJ8EM1RIJLlF+SvVVWvsvqGL2lva184t0xX/GXzPPWx6+ETPNhtdWUerY/S2vsn3GJk3EgJKe6UxBYHaYMfgz4wpqY/jD+2D45/ll6FjzlP1dGbfwDtVwdXifBmz0cN8FlvPrpis++17EKHJzA99e9qTH/el427rXfq9L1BQkJCQkLiO4ighj5vBOEYA2nyEdi6hXWNtPmjL639J8yJC5Nizu1ykX+T1tksKCOiBIug/X2+uL7zwglpOrDlQxL8AIbDmFQfNu5cwNSnGuD/EakfSeS8yrO5cbQG3F1Nwlw5zslAiOfGjZC/0bHfscNorzvdjlNYrurlPsrY5/ulzt5bToORkJCQkNjSIRrKCG7uwwRW/Gw6YYF9JuSTD9061d9LCT6xzFZ4pJbcyoj76hZVprvlytTxy/66CCoET5kI0ZNrQxXjBfOS2HIhCb6L0Uo/GPvzrzH9EXLlGuCsnxFqmd74aTrnNqlHZlFzzDYiyy4BbP4Y1YZ5qDS8zJSGV5nS9BYo2U/o3ApkOe5ObEExD2dZaZf4I+rK/lxTXumD4x7omzlne5CQkJCQkNgCEVy9VtTEh+ip6DEnSgJw0mBhAjvxsxlNpHH/NSVYx41vPLfIsn+tLe7LyM+fBUWelfy285ZePg0qjKAdQJL41g9jBSeJLRPSBp8wCMYPaUacqXM4wqDb3O4h3JcABSmZUSxsJgmdz2Xq5nmaor+qwuqvOw5eumr+/ONyoPts77AO6vCWPo9WqfW9+kBjt210rg4HUPYHPTUS9XR1/BCkURP1p5DVDu3PJlyzRP/mTwCzNZCQkJCQkPgOACPD7NAC7jGTkNi6ZVe++adeFx/FUX+WDtMoTKaN0+hH7+MjWpN+DlQIQbv6PKb1ISGEC24zRQODiMEQiS0M33mC34eNm9is4+UIrMYZ0kKR2Zsbeg1Y04ecNd+TSn/z4OJNc6wZ8iLdNkPqgtlzIvgclkE97X9u/56k3+W79N6lds36nfbgeuYM1KtGcT3dzeb17nLd1jHW0tHv+6lbHZdWzvnpl03XfwISEhISEhJbAvIQdR9ZxUC8GAYvusdPgt+vuPylv/a7ZC9N0x6kw8FFarcNfxlXbtr21Uvr5s7NQSsDI+i8vWuDe1p7FKx20G4facOxReM7S/AHwtldc6j8HbnyMy68DNYTz+0hN60JWdMTWLXu2iWb7nveZPrNUBa8t/y9zfT3f7T7vz59hteo63c4hedqx+m5zDCGCCE9Aocdsjn+bp/UhAuWZWdMBwkJCQkJiW8xWB6CiREHKLq44RB2FRmXvgB+u/Syd6ZuP3WX7IbVNFKOp1BQl3zmOXRKJ6pAnIBdMmXp5a/A11BxOCTd3ReknZD9PQSvP3whUoO/5eM7SfAHpCd+T8/iHHpB+hvH4eEuzhGbZ6odll67aP2jX8KmyFhlw7Jl80jDP+9G2r2lf9Xo/UDvNgO1zM6isR23thmFw/UDUuP32Zxde+YauGsDSEhISEhIfMsR/MJG2pkL38Sg1r+lX+gLP7lwI20m1w0be2l6XecfAteOI46wDQfeGzhWcdTXM8BPiR28omfZA5esuvxTaAWI12XwAOaOUHCX5HObJGBACnHzEBoJxTzl0ptbNL5zBL+fOu5gnsM7OLC+Xk/haOwRmNLwlgqbT/0ye+e7kMwrPfbocWqHqo3YG/SabqDnuoPCqnQtpyOqm0gbv15VGlbu0bhhyezCNvTaksbZhlZ/14HVp4wHvfYSrqlb8YB0Th3M8bWprj1S2bN+tRxuXgESEhISEhLfYgS958QSdgwkEE8FSH8pqJt/o6HSe8T+2UUZPjKwzRXe6FPEew3h88OPfqEnTgCSGvwtH98pgj9AHX84EeYH6NGucRaiMh9yc9gvl2Vq/YzNtV//cc2aOXk1493gV506KF0O4Ez5IWh4IF9rjATwnpZsrZq2+QzS7tuTzSm5V5UOXw3Acz7jkHtRRf7IwuyN70L8+8UXN9w+o1/HXzyh5jrcoWdr9/L8g7mv6yGZVOq5wbWTRixcN20dSEhISEhIfMuRyENMDDut1Dh7W5P7WKLuaOQ5BLwK8UDqMKQN/paP7wzB769OOBD01IOIvDr0wLPcKpZac/zixruegab4PAwBATg7gZrteHo5MubwFlq03nGtZY0EcHFwwHCnqdL+EDoagpA+VOPwxwGpSZ8j6vcBZm9d3HTTF1HlLd1476f9++9zkLJmx9/xXO3FVDa6k2OsrIdp9drT/TqedPjSjXesBgkJCQkJiW8hYk1t0D+p1o0XNisP+KmvFN1vO4RGNmy3OBbd4PHSUSDcMezhW2AbSXj4Tshvg1OTdmM8dQ+x42rDdz1z/c8jMLXp3XSqcbhJ7iNgLHw1ODXxN0TI3wWe+S9A6mR6PTKmTI/eYKLjzx6sI3vxKwbImODvXvgB2wZAuRj0qs8Hps/5v0Gpcd+PKn/JklcaFtX/47dQtfoUVLQNRu5G/c2fmbcyXG3uenvv3ifWgoSEhISExLcUkXSTx+zHYIslNRHmOd7aOp73HBRiuBNzEXymO9I057uBLZ7g94OLuxORfojocB9rYSqPkDOl8b1Uuv7QLxpnLY5KO0iduO9KteNLOqT+gVzdxSTmzCPpPpJvGsGxwA9AtChERPHQgpleORYw/erAzORZW3WY0DOqLos33H2HWr3yeGTaZk9IcPJkR9Vs6P4nkJCQkJCQ+BYjqKV2SazoQUeIGzze0sgrxuwbcDX3IfBQHn67fL4lDnBIBLClm+igqjbfDlwZ5HQSzgqywBpfy/V666CFpCEPJxutDEoPvBy5cr6Xk/XCiAtFWOE+a5zAOyO+Uta6fKLkHVgcO0VHZ2Ry6qjBNZMmLKyf9hAE8Pnae+cM7n7iwVjf7WkSCjo4OVg1Y+duXTvprS82T7sLJMqAOtYHvu6mAGyTA6UbtbTKQE8bZ3RQmhjwZoTspiykvlgJvVZQ/C3YH0EdGwqrU42Q7cFA6ZIDLc3pBaoFZWMjqKuXQOemLfv6JSoHjkNhYronqD0gzTpmeXM1DU3WY1N2/WBYuXK2XNzPxWj6LjXBkBpeVd9DVatqma6nQFM2NaibN9Zvnr9qLjynQTuYCFoxBCaPhk6jOFH3O8Be0SPqmC+SDccJuHsm0WQHiW8ztujbu3XqgklERK6zjoTVHZSG91hqzaGfb/pXyAONsaotpmoepbg7eaGew12PzHOfXaAQ0z/PxZrF6x9eE4SFaJs5I75+fa47XLxkyXUhAWSbrieN4s1d7yfBpdp3AmGtkmvYY0GMTb9EGF1hTGciqoPobu7DDYsswO2p/YfQKWMkpSoqTcRLY8zcoGcJFwBo7+ugvk5s9/2O8Pmnn8GcJvgWYCSMVBfA0K0UyGyvM9yfBJih9NgOpVMDqD26WWZpofldDoxndA19VL/iyD9BHT5E0N4g4eezpTBjCUh85zEUJnTqnmaDcxz2o2drV3p6dqDgwfSjEVZe4xg4Bnx556grXEdhn5Py9h3aztM19vaK7NoPFsLtjbAFYiTUVXXpvLqfrim7KqjsrXM+lHHYml62vqTB7khbs09ym8mzSzcE7M20XUXbRQzxI13X30+j8p4O+if3bLxmFbRDTOw25Vaq/WnGPgZ+YAd6g93ofnP92mjnvLdvEVl8/S8rpu4F33L8Y8iF1nxYnwEAugTfGsnnwrPAhfZBM5194BJ8R4uvIZ7384+nXgsSWyS2WII/MDNp65Re9SFdYpWoYSfivDhbvfaHX62f9XkwzZDac3fFXOppzlkPK8Rj35bmnvvnpqMzuZbbpjpiGm6PFohTWUS3nME4dp4gjhJoj23uuPL45cv/tTlY1627/GYyZrtcY3Z76MkQ9CF84fNN1x4AErHoBWO2UUE5krq7H1GL7W55QMKC70L0KE00KJ7OAL+k7Rt09ATApkeXQvuaCN0TxnZIgz4SmXIAcv5TMMk8ViVNn6AdiPjz+RzxVdD1J3uBNmcezMqCxHcCu8NveqJSexRD9jM63JNUhr0EmuYiyhwjCK93pd4ZcCntPcdQ/fdLTdfOgW+5VcZRHc/rAToeRoLPYTrwQ4iE9aZgFX1ENrhmqX8HA+HMn24j/d7WEZ5TeO6puzZOewnaCRyCHzYh8Q7MY/vBiCLzbho7wCb3RtgWQ/Cd6zWuzb/AlcVL/IIPd4UAsV18FsKukhHPO0YS/C0WWyzBH5q6+EW6vBGOe0mb3OtQtfzQz9ff9mww/qDqKfuoPPUofT66O98L7inuPWKHomKeu4HGvrEqn3jO77s+YqU58bwgdYt+7xH053Ip7ZgIV5hsaJczp0Ou4zhT8BDqSjvnLNhwtVztVkAfGNMDQT2VGmc0tfAe0AKU8tLQ7amndP+jvZkp6P3MQqhrIw0kxz4w4TCFwcn00PyEAmocwcVAsdeWNL4dz3iGn6PCbq2FFU/Ph9llWhe6eBgrWavAvg8VwgZoeH0V/GMjlAFDYdxO1LVsZewntqlUk8Wlnqvp3dyNL0KZUAd17FF19SGkNjyL7vNRFJTCUJmlE/zwPl9ErOfONLBb5zZOWwjfEoyEU6pqa7qfxEH/Kd3bw+hKFJeAofftEQm+tQVvKzQEQgThjUpn7vCFJCTNUXL87/+sv+YtaEMBySD4aGvwzfpBDMG31c8oeKvzxfeRe+uMQgT/T3kI/qQuk7r05lW+Jy7Dm7ChSk9BQnRMZVKbs82m6WZGUI1Ura9aO3b9FWvj0t2y9YWduaaPMA8UL1wJxDPeYeIkjyN65D5wL30a+hDBR/CR/yDBJ8xCnT8crECwHk5dzHP2DpXMD39/6pxgvOd2mDQ4l8p0FMPSvhjhbj8ViJSGaCiq2rj7a1ctgArhoz3Hdc+h6nadtR3ow61lsWMuXeOLmInPg6nNDDRWHQzHFK7tP6d1R7S3SBv87aouOp1zZYTXbdkyvdJw2YIIcj+k9pxdFC1D5B67o/CF8XWiXCTdVu/rRbWXlwOxI3Vs7t0ALy44WnqPWrkdu1lbTyhBVA5K5eDBYcNGHz5/vo8Q6Z23efOCTZ8fcADX1Z3dmfJmIn7pjjWTZn9UP20ZfMfRF8buS00ymZqGNPZQ05JvWbHkN5DW6CBG0d6oLCxf1g/OngGQ/ddSuLVVXnjS1m+VZmw84+NOoKdya7EZSiH3CCW1ZBf6/YwS/2wT9Fo9CMdfn9Lxts/awIwnpag/oXf6NjEs7vrd1wqSo6eu9l1FmlMoA1SFzaCyD4I89cCIYz1BHHoWXqPN3tBCGN7G9HTmJ4/wNX+inHfEwPPVkncnP3AQXehvaVjogn3Tk/6tceX617LXzIN2iqNrJuyeg9REah8aMeNdmEPAoxrIJbPxAlEQfpIfSe6N8MGU9dmaCmed2GnKxzqH6xRoeOCOjTPbdISx4HPNC8e3nrXCT9slvc7pncHMp1ngtaLpSyOmmD0m7hM0gsKSQ5yN4ciqlMX2mA4uach2hjNhPcyKK5/n+KGUYraZD+ehe+Xsc6Gs4HmRK4DARRCi3/WoMMIY0kyOsarNA1p+T2BggdEA83qBv0mbEMGHdPomFfkR7sgC2AwMbe5kiA8YLAN8goiOfl4E9lYHzSjzB1AhqNXq66SR2NoVgOie1pBEoyuav/1EwUmsq/MEKly4Xrcd/0l/ToFWxBbnRcew9URIXaSY7jCNn2J7zGl6Z13tkqmh+JnfbaNqXZ6iW9udMYUaxHqUzbS2xxzFdUlp5Umk24onHKN9bP1Q2A+6yjTyVey62d580PPG47rwtNOYDwtTR+aWDvnXyJF1PoFs3rx59WrVptNA0RvR7KUsLz+07ZHLqOfAdxikpd6/D4x9nF6qF6lFfg4WwW4RuPBrGUiJDngZqQHe7Q/jbhgAY7aBCqEPjN+jPxv39yrEj+hD8luT3EfVCIpHMWl4OG13Ith/yqL+0SCq3yAYuyO0MXiR4e0VWMrNbAF2T03eQ1er/oMcZ9Nh3vuYT3sfnyZRuDFScKKK+uv7pc+5e6/MxG2hncAY1RiVmTTqR1WTn9J4+lV6oE4BS9j1IGimuShx52sgnj+IC8okDz4KaVCTHemTMQtY1dsnd5ryl+Orzx0ArQyf2WuCiJg0fgEQ+VIsRT+YW27ue+Q+WR72Np8kEgGOeHxkeCDffGB5y/ELDJxHlVIweeiA+x+wJ2LTxkgT7iGPCvQEilCWyKOyqTwEki6Geef8Qf50bY8tjuCr1V1OYqBsY7yrBrm3iDTPYlXTyStXzt4kxh1MQ3SKknqU4vUy4xppiHwrTLXTWlt0j21yb5J0im0KDxbJV2zSrjg/ZgkXTHHiK/bPIu6KYm9NAQC9c87PLsMKMwWD45a9W18XvN4Pv/nbG0pq403MzAPtvMx8x+/Y5bxB8B0Dacb3pt9zCNrzlta+vHSn0De3OPBulNk4jupH/WH8Vb3gnN5QJgyAs743gI3/t0KEh/qnU3mQUARrAsWh2Ph52qyDUT+K8P4gNvbWITCu3T6z7ZXot9WHhLT2NbunJ1wBoL1Ib9kh0AqIu1ZvdpRhoo8npIB9vF9m8tWHwZRe0IY4ova8w1+t2fAWdcr/IVJ3CEfuWh+I5BDtL7FrmoMFOZIbENQ0e6eD+t4g3DYzyh2gA/9tWmWfntzp/D+O7nBxpLvmSiAxmRYuFGPyKe5dQF+quNYqSqBI0Elwg95z2Mu6Hu67T5in3DDnDk6u9QNFIhqII5boew6jyhLUWuLXFE2T0+TwabMFzbcX6N/3y0xx1L9ySHTfI17Sgu9tK2KLIvi9e0+pVVG50NXeM0vzztTcrZ+svf69YPzqbLc/EBXfEW1SbhJ4UzfvaefdMIegu6MCzNa+exp7cd8cBWDW1tXimwRcMffB1u6DTeZB0Nq7/vadHzr1Uc/bsfuU0IdUrVL+jEr2G+aOBpjxa1lKPR++IzC84fQlbTh1l8/SbyRUCOXuYIy5GfQ/xUGfksLcawNg3PHQAvSAUzsSsb9MR+VlyvsXTpecpJNpWwJLLxXH02ho9s3BbOxFhmtOaEdoy05aRLnq0dJ8toMxPbhadSfdswvBMF2GliOJKF6oHMHq0ZgRdV5DJvvqiPSkY6CVcRhpwkfVTL4ddZ1GNmBXCNYRBHrNgxrW0hGlAQ7TV+9MhNBQRT3S72tY7pXfdDr/BGgl5CVTQeaN0ekxYj9vmQ4Z8xHNaCOfKLMfhDjNbf7SZw2esj1t+gPE3ZUE4O4fX2C+tF77YN5seYQwENEia3N6dl6+ssT0Tt7FxDf3A4Gt0Q+Li4bFFRgQdOwtD4TFCDCtiC2K4PfaXHMkA7U/Ms88hxnzX6tW/zkYd+eOl+7DIHWOYmrsHfLu7TvaeUubL+SnWATd0+4rbhyLxNt5KYLGnznmOoordJh5KFZcZF4c0RTIGzVwwrEKMTVz2LA63xyU9xfftFZhuesdLb5i/6i8E/r0GdNi05T2jt6kta8G9W16ocbRYTWUEZV6L0N2tZZvkUHUud5DBP3WnjC6AxQJY75BFVa/RcT+YsrLN8kpqnMNfhDbqA8KAHvQF+bywbjyna1h3HbQymivWvo4JNZ+QvFp4rALTOjfIVX9BD2rP3PyK2f++YCx4fYnVSCANrEdQl3hfQdmJs8cARd0hFbAEdWTjydp9Q16mE62tDdCvQPf/CiiUArZz2/mwkP7GErh3UWrXnwbGm2465TOU+45obZ8I4tBRN1PV0hx7qOwwFWUEFjqGK3rR8afGwDkNwcJCmi+pEnK5epRSdP4y8JQeN4KODyVR2nkA8c+O3IxR//aPe594PDOEfOvWwMJgHnOYII0rfldQuZv6diyeXCn8EvbFmR7iyL4DDPnOaYzjokMqo33fbRqVnCyKT23tbcy03GBbZpjkm/HFMcxpzFM3j3yb9naO0KATeYdG3+0yvXMghxzH2YLDo7ZDvPs720NvWGuY5njWNp36xhdYUAxt2Ado7KdsqZ5cvDaN9fOv4kp2kbHrMdO360373YKbKEwJvb1hbN/T3fieTocAhVAlEasHCTQ8qrkfFAxeO60DPaaNxDO3jpJXv1hcvUANu4yenb+B2D6rk9WBygdpRDLIuPvrCO8N4SNnwCtiCQasPaEUu5hS+77znB2VyWFT5KW9/stza/S7SnUS6H6jlUy2TcPzlROaBzVbUKnI6rOvY127+GWq0uXrftMjgUhJEjmHfMcJ16k9xwxfsRxhAVzYC+oBo8lKUZVjq9SU6/9psP5B0IFIdYo9FwEq8rj84hKkq/QSK1xgqRBjTPa+SUBCSz7uwl5HvqL/vzDd0wQfMR0EJgQm7dBvWyKeR/pfXq1UAy3pGAdEUIORrz5FYIWPEqYg9ZGQABE75ryebnyhbZ+pV1sMQR/9y5/GUQ0erhHsA2yDjqyxhuCcXfp8tcTGaaGOWResX+mcY6jxbdt8l1behQ0/JS3Z+MvjgBYtvimGY5rxqO4goBji29q75knKDDHZp955B4Fzb0ZZscx4wG7cM+O47qL1/TFF0+vZ6mm/zPNdBzTJGP4grEWmXy0V/SGE2uXgXozvT1/RNvLVkuRRJuQL16x4O7Hn9umOl7nRns1WdA2FMrDdP/Jmm+lpKS15yV5xSqHwFKuvAPxM9Qm0wexcXcMhrrE/vkrgUq2UblRSANc6vM7DEanFVW9j/LfsRgtcyLC1CofQb5dFlMvHFQ9+TgoMw7NTNxWr1dfJvZ2inGcV1AMErc4IlOEtBlH0FwCgn5Vha+nsbdBX/sCBqHCHzu904XjoC0RYLrR/XIxDxLmnZlgxYjeD2Qj7OYvf2qPCzpST+96gYkawXHrwWPyRWuCLWKEJj4JhGfBbTP0K7MKXbem438gXxGQqCLhXUz+Ha4oMOa9dAWRIIS5EHEvYhuw7S2G4Kt66iQi6arqEHbTTEZ/52drO74sxhsJdaoKNecpzImnuuY2zj6CtTWOFUzRfsreVwXib59nzmRc1R0BUNAOt887E28dO37F0exbk2HdybSeJl8x90Wy703ANU1vumY7dDsj1AaZphlM5Zo50daexEt57T9864kDYQtCLzi9twIdn6bdU6GMiOrYgx1dJToZa56GL2fitcovlsGsvKtP9oAxfej5fIo+BL+EVkSxbZA0fixJ4XAi4Mr/9IfTukEboFL3PSnETjr4CY9sr4hAHrNfDDLKVsbCeofEldHeENZ4ms9SL12HPx8F5TNdPKxq0g+p3zfc9+0ULM9XC1tNLS5uaAYJnU1iwYnHB1nPa97VBsKJTbIbnkgp5N1BQ+2GUzufd/kpg8svbDv63LyPVYG28YswCcrEGKJWBDD2IBpdanBXtNe0wDxlFWqHKGt7hDwimhMH4x+cpP0clbFpI1S/DvkqGFt+WMDNV2hbdDOY5KQw7BAdv32ohLYcgs/YoSZxVmzybZBipfH/6qDO5w56Y4/OhyuQ2tkk88wh8opH6I2fYpF5RwBQmUPajR8RfsXad0x3mLPPnH3VJfeOPT7JHvYEW8Hu3hAKFM97jmsiJHjTMc8rznn7Zx2fNaznWJ+d9puf3fwOqvoHlsbfMv0xBAnUOreKh4vWgLFAkQLpZ3gZfHfnQ5AQcajcK+to8F2THc6nfQ3TX86XxnArWYWq4cN8NygBGPgVgxZq5UvFQSmsfqIfTOgPrQiHeLQXhLR8kAyF6F0h7KaM/ylHHFso72LOFduumGA/Lp0Xh3+uAR/1GMyqhzLgsKrzfoWcPUS7nYJlRh2jw2KFi+dBC5kkDYPRZRS+t/GkpJALU7t3ukhZt/kmwzwSyoy4OqFtIl5ImHV8tScn+jxCmMG87RiMzyPC8gJxL1O+s1atCp8WguO82ljhUSJk2LwlJMTwoDGJ3bjxFfblZyXhLx03v645fwq73hium/cCBK8hXP/IjCsIFlmkv8WCHomi3ym07pEvbut/SbYIgj+iR11fIrI/UFG0vyeCm171UDCuqrPfGLb3jsbeMqnxSHnQBh9tAo8CoQ+Se28UIOWZ3qB/8i46mnv0THkcbb0zqdch7855VYnS7tvnFXVQh+peIwOXx1Ul96ip8Xc1+ObvaNgCMBgmdckCPEovy06t8K6HEPgulydPh9SjtRoyHX3UEVZelC9NPxi3nYb4BKUq2Wd1MVzCrF9M+tYEiUF7pFB7vDec1WquDwtqFVsBjoYiyTcvid1qsfduGBiKBOUqSPC9yFdWPgLZMi8yGLEXGW9xFvTDX2ya9gWUAYdWnXsKcP1Wjjz55N1kKlJ7kz9ylIEGjz3OZ5kfXa3YW8L5Kbt36fjAaBgdt+Boy4D+UY0gww0cetWC4sF54bdDvA88oO1G8aOQoALUhx3l5ZP0uW0BhPpGI17rjxC2P7fD50CLyw9T3jihGDD+npcbbl8raOjFCjkTjWPrEvVSYdTJ1sEWQfBVrcOuKqSqXK27YR+vaJ+8uuzGj8R4w7te2DnFqo5SmeKa3Fga+5SnuaefahzbP2OfsZR1jqW8uKZmn847ZjhGOiMMPdMdI3/V1vq78ey4oomPO/Lg2Nkr1jE6k3PtY5PkCxp9+v0q1Bi1mx5XFHQ1+LZXnuHDv/XedDg2QfMseklGVFqjHoVKkHsDot09kfxGOj56PsyO1Y70h7FDaZh1Lhiu7ltaNiS/riiim1DRWFR9EuS4Sw1TXmhNc522EGaikOg+5THdKBVqKnUqafkST952UMxHuWUuMn3GynElfKli8wEvN834HMqAw6vPOZaIzj+ovKp4zZ53zMUdgRAGr7uYiYVx4TxvHFuz6Ma07pK3KBb6SGwsOBzVtdOgWWPK8F3BcN6+55gnub12wmKedYug80T8K6hV95XqNWPefK7tP7ma+vd9jH3G/OQ5saLFrG/4BsUKa4kESn/pIbEjkIcO6ZcgKTAu2NN65226VubE0YSY+3d5hKlkzLvvhbU2Y7GwRRB8RVWHK6advKUJN8m0qr0WjNchtc0PVUxnDNKeojgpRbFJuWKSddcEx966RN4m7x4xt0i/pfVP2XHtY4WtVRT+JWW9iDTnObSFA8sEKCWY8CjCKIBjyiOcc73pKJ7mnjkCgPVDRR0VXN22ekPDO6ho9Z4QYLjMVPpUd+i7FXyL0Rcm/IE2o4OKnUoh7kWtRJmOFl/nMG4J3PhZXDxjISyK+hSYK+GWB1HEPV9cgILfsRDK1WaC/eZ2qlL1qGGuBa2AVv7GxKLUemCB4/yoY6jzyfli8IThvIUfOCzhjI3PUsAPebZx5iIoAw7PTD5C19ntcQXzqOOol4b2uQ6x3k6iV6KFWGLnHEdnF6SAYbWzTysdUyS6qQwPFnAyNHa6FsoEXw3REkV8HRRGP2veNWOIMLakFqG2tQMCVRLIXf5SM6juT3EyZh5h5XDo+v1n7bK57bgySiqKgb+uPBDOfXGCeYbqBbB63Y6fvg0lAN0/oWL870jgHMSdqzAwZt/S4OdrN4iY69AGFwBbCMFPYXq4apq0KK5GHBX92WA84rtHMUVxJ8C6k2B99vjOhFm/aQ7ahN8i8TbpNzX+ZjyuKNoTLL15VJO+bLvU0BXbNfV+d9vmmhXbM7XxbKbwxYrirZLrlKnYeTjlKY7JjiKQfpfYO0KAR/pVxjpry9he4jXOXXh7o6LqrzvCgG32Q42Du8K3FH1h3E846L8tReNRKkoxiy0WzqJmVgHs1q9h5j/i4m4PF3RMY+7f1OUOhnLWAUq7tmK6q0L5x/CbcD6CZo/6z33p+S8buchXfrHtU+4JqKzEepQDuyirjqLrGSyGhbTOUDkkyZvnJzcLGUsf9EyZzHJGVk0aTMT2VmqD0DoV+TTfKA47ohAXw+mCFDPf+xHU1vOYcxE1ApGug1s9nkjodwgO1f3MMV3PvwDKgEiBEIW6FPEClD66mGecKOL+8phkUcSKvtqHm+ljmC6PKCsYM/rdc8gm+uKERhsibO2DXnz8x4GTZhb8+eNmz9agAPzV5JF5us2A/qcRA8y61alxlHCFXn1jrw3z5IVt0XvT6Ct8i3HUVtfuyaH6D8DVUUbrmvIms1pUU9e/H4yfxszunMi0T/ay3RlwtLos61B4bdCa/Mh1c4FpcDtDtCfo8Fw9T606de7nk+51C/K87hsflZuH9xlzR23N925ieoeTjPyMf4hOV8qpyt6+9SO1DuOCpCicd2YbcWsfldSedOQbMiMN/vtE60e67hrMwNQ/DtzpT7vpunLzCx/9dhl8S9ADztiOLvZm2lUrKcwHP45iOIDv21w2uBNrOXxIlzcxT0zczMZPo3gjocwo5pqcNirmPiTJv6g6oC/dKUPYuJVf6jNbTDCwxHNRKNeqpA4Mu9AowtAaHz5EdhKUCbG2viVciF+L6ic2AC5heIcrcOTc+ivL0t+NggmZHLA5VHo/sZxg2bH1FToTFAiDGIkL+WHezEAwsBHbwkOwbjGtDyiISJiAULnaS7dg/tczup73/t/WXpPcNjsy3/iAaHIVX9eiHymhjWLz9Pc99qVD5A3QIzPgI4NCW7AK4j1Lfm0xX6/YjtXfsEmfYeO0juwJKAAmxBe3UXVJeo0CI6s4Ag7tin7GwqMkJTyPZcK3UoN/TL/p/X/ad+a9KnR4UYXUkaS9R8XSaNuTVXmuafM3C8Q0IwfXVTFM7eK40HQ85Cj2RFlzBEDwquOucGu7wFTUlD1CYNnsWyY9pNnPNJ/uI/cRmLdsVv3zn088hSm52c7IATLR1abq2eErlo2+Fc9eAdfW2DujAKY/fdv7DuPqHsHyUip7n4W87ihdGGZ+ryjstYN2/etkyLfCRrtBnTF7YRq9LlsFK1vuVz2fmUGwDy9zwRsAcj9bAtc1xEUZwCacSfHK6hK0tZC0zQpq+eMzOncojD0MWghRcHHLhNJQCQ1+qc97S6oyFCZ0ohz2bYuyy5D3pxkl96MX6qeVTZmhZdQr6U7sEHUuWqjzBI8opSAPByVrNMwfFYtqeR6VdcIquCYcKpV589jasSWbgUaRe4z4RPkFuwJ5FAAvpj5CuO+H0TkHidU/hl7ck2LvVuyHJEl0jNnPFy/uXL44JAZqjGuvQAnw1zHPiBsmzaXS4NGHcZKZGDX0IWkdwSQK3zqCf0y/609keuYNFTLHESFPGXb0KdLam3b0imVXzxiue2nVPzaJ6TJKz/5pNa2kiCCnMOXa1auKte/Y3KvoTJ61finFmSBrT5ZVxQm5/IlnF5x6T8Kq0+BB89mKgo2qKyCogQm3asjuXxXNiFCYkOuZ84RWO+WZpqWm/b1ie+Vh3sq5lGYA8tS1B+925euH7vbnbaEdYytYfiK9HaOcY0EB1mqvutPBJh/6Tpant8/PWQK3LIiL2wcmDiRN/xVQQSS9nkhCkgfBdos6H5d/qOz4k4rG8I5tKuBZp1TzLF6B/jzYloXa1q0LlI5OKRhGOZRM2oq799wYFN1IbbeSfsb6D/VQZPWFdv+wOqXu/1T9DV9DmXBoZuKRVMHYVZXzEROnXubHlgvf+6BUida5uLyiBFBWII4Y1z827S/Y8aVS6NnlQobi2h20N1BLVd80GkYrUARivEXaoxlcPHTK8dUhkMS3TQJ0//hTeuVhcJAltvxArj40N3HDVTVLUrmCmnQMGqXx6Crk0d5HCic+syDuT2I+t/il0qPDfEgALDI8Lk5SwaBswNgDISTiSRMHRVpTDimAbw3BP6HP1T1OGHDTvRmouSPF1K1UR2PPHJeStqtJRVvJ1GbDNtf3NGRyHQa43m6cybU+//YBH/hBwm17zbE841jpsbrhj1AEnvl4/Gqm5u406+tMvvX5zXcIf3DireKflIveglmk4R8Q1ManlI1vqmr2YUXlOYfcu0TfcptJzyPbg2PmvUOGX3E2tB5fTowuMKkL1fYy5zhKw9oaEMvl9mFLG0v4WP3jK7jxn/niqqjdSpvOUCHEfgfKAEcQyzc6Ukw98nScvTlTp0EL0e5eAhvGcL/Tlg6SvgstuSauc2PhJr9JLCbPv4A20LB5fIH2zmag7ZLqtKlzVbZrtyOzXbeiX++NzV93TVU3d0edj6AGuIjyeoLibwzmG+F6cwGpk496ctPVK6BMOKTrhZ05Kjc5V1/YY4b/QFRMGAdcVJciuKYusSuXRuUNxfWJtlFNRCgG4kTFC9YBoyuA+NPuXYYUteheXhewfgEiWZ0gOakJ8/ro8oL9FIs6IcSOJKLID3IysJwFxN+54HMQEuxDQqBQb+eZC2QfdZe5/9BPUu0n0LVKtp7R1w6aW5eDpECrAH9bek+i/zUIC1dRqDhhdd/ZwFOFEDv53L5M6xij8vJvWxPfChv8k4bcuAvXlIeQK0O4oZmm26ybLW7J/+aMfpb7NKesn7FKW3nn3IV164J5MCXVzXCfyRHdNN5jZT02rn5DEOu5t+s75pjb9KX25TwoEqqCzwCmTrcedefTbfx08OzzdXBs7jnq5vVaE450cDoQ7xg6jhz5R2XuXHBfvCdfvtn4uP30yD3rttN4+mymp8/UOat2rsAlmMirSAF64+HDr9x70yY+/qVPLtwI7QTVkL2UatrX2Pd9IFsHRlFLqJ1fomfjfXra5jeBvpxEMtOMhgiJqgHrQp0A1U/fju7PD+hO7I2BxW7iYNvdf1kPbDLkuaz+MP6X1AaHQgURJI4JYD6EVC+GraircCYjxpfIRw+Bcbd9CTOfglLyL/Hclgwd2U7icaF7kLSdKI/NNJp41mvZ6+5Ch4rYazbP9aI1w3ow3MW+bP+m7l01aTBo+GMq/0IQ7OC9+vEvkSkHz2249isoI3hj08VUT281cO5t8lJmUe1cAO4nJ6I3iCqHWs2c6EijCr73EKHQOx2m+uY3RyR0UXUT0zjsEaOun191Usdx/7lj48zVUATcOvsr5vMwFCrLPu/xz0BeRSEs7PgIqEDWQnVFjxBGlfwc1KmfQOM+DsMwPScJTBUDqYJzScRwq2xrzRQmPGhO+WKbRI+O+Bs432hR6JkzPbglQMCm0L0/iBD0rR8p2BU4rjT8TwF4z17MfWnPaPcE/zeDbz6B6co/TX+U5uPBzJ9qbhE0lluVZZv+kNu95y2zZ58cO7u7JpWqAk2xhAF3dhDadNm+g9wOR4d2O281uloXbr8URLyXz8+zmlscsGrzItbY3eokuW6SfI5OadY++si/Do4wYNjjc3vfHOszjpGnq5d0M4ZFQ5L1f16v+5Q2k0ft9YdrFF71B65nTjV8CVkfau5eK3DlpE4d+V6j9pp+yJzXJi6BNkYfOG0QtcGpogY42AlWBnwNdUH/orvwr2Vw01tQlEwxOr0V9NyV7siJlMfPwbiMuFK4rtFdHb0GZm6Ii9MfJlcDNl8OFULgOxrZthTeQJV9nETql3TQP6G37VPiFWtV6Kg3Qb2aAeiRhVQ/FfTvc1AOJMF0P3p6O+crq6S6IiQxHVCJNF4FOt8d2tLoEaDVbPCx0mVzErCFDHke8lnooyxqpBnjf3q9efqdCNdDMXi1cdpC2swYBRNmrUupZ5Hg/TvKtoddk4+5oh38fP31ZTPLMXAECRU5jpOSxo9s/iDRj3jhXMEJ/cdmEIeltH2S+vo3aED3Y96Y+jxb1WT2HdXZmkwzb+yLikLvoXYgvX97UuoRlEqJrpejuBJVXE7BEaYHkdeDsS81CVm9a1LVv6fdc6AUuNeNfg2o0GYulQ4QLofUFg03X/8YBkI84Q8F+uA/saBf09YUtINbDvNyiSO7ebNFgPwTp/P3uVHtB/nKt29FOqs+CUmgg+9emT8mtp7Vzs5j5JBnzHsx9r1pBZuToviGRxEhuDhWovQVRrsm+GcPuWUcEYfrDB+VlpcbWyZlikFQc0Ts72rosPr82W9fshI+y58XkWNumLUY3ZqCjsaeueTep9FHpxMEXxh3Qs34ekltp+QyqlEPOw/bns4m8dzS3hs9um6I+bb/DDRjWOHo+NSwtfz0kdM/T2+Vt0ee89ofDdJ+xo/2+9PNoNX8E7TUTuiu/W09zlT09shzLx2625WHPPXOBQugDcEhbZgNdbH2/Z8eB2V+eTZTZ35LDvSpy+GmEof2Zzd/A/AG7bwxDEZPWQtbnUyE+HyqZ2ieA5X1u2VwY/7RH9Y8ni56IFQIce1K0OjR+B89XTObiFSshBs35cnG0Lt+TL9n6HfVcD4mtRzSoxXkp9OzORLsgeiW3qvgojfxWie+6zbKxBM/1+AOKLYMiCHMec61JmIEsFB4sH1aUncameoYfELiSEGwnPCxp2XEFP4TilaNeJgDM5ogC9ePqBk/G3LKdMp5GDB11MtlJvcGcsD+SrXPRJ2Lut687R0xjI8xLyGdqade+W7q+e+8f/O1z2NQaG30HS2nn+Gb/DHj4KSOF3fPgnYKvcq/oXx2iqqIq/ENHAevKxgmUl7OWaTHEDp15pmdzr/hlg1XlfwdMZ8X7nybExLWwLb4MuP5Y9RzjkEWiKEdEzlV35Za6lOL0XKT2Yoyny8LoQLC7jAnMiLPO4IWVYVgGS6svmIl3fuVcfk58Ui4XHrAR5clmrCOCb0CxPUdheK3Nvzl8ojz1ksc/W3iEXm0HtotwR8/9JaLQKfOlVkW4ya5R0t7r6O2rJFtHnP7x2c/ljQ/ejHqVZvgOy41uSgOG2H2i+eY6HjnrUdQt0O52elkeo8aOj0z57OJTVAE0mq3ATyXcrX2pjYeLU29a5ZDo6+WEOJp8RGsY+6GWySfTjT16nWjPj/B1JfHX/z9vMMOm7JXZlPvS0FPX+h8ksyOzbwmPrCqKvXMj/a96sjHXz7/A2gDdIRx3amNfZPZxFeq/C8KvpmDptNWwK3vQZlgr0T7tx5w6r/TUD2ZrucSOrZJAn9sH1h11ew86YfChEwj1xNrDUuF+JGx8RLj/IIhMP/1uTA3ua2ljXkwK0ubuynjuwfAWYcrqPyZyvgBlBH5NNT20PUFNDhyFwlcBX01e+niv0fFEuQkow2lIPFHMIaAl1hmqpj0SepIcZpe23z9cigDXrIm0Y7er/PZXV5cf9NaKDMO7jBhGM/x4+IIUpRWNxgvShMK4uCpoKk3o3ASfRjcB2ru0gfWmSMWdO46KAZ3bLzcMI+5ZnT/a29Mb1x2NL0TV4G58rVfN+l/7j0RxaL7PPJarW+F7Tqah+PYpDRDn9pzaXs2lICgCUw+gSMurDjCmJyEhe4zt48E6Q7BGR+xMHbR1Mdp8ziUiH9tfZFwm+zc/RUIVzCECEGdfhrgFT+ZP7Ws64nkR7itE8hIrUqQRdE3EChAOO8KXWFhF6PityLa5STbc7e76Yw0qpenFYWlGYOU/VPNSaLam0247KDb8pD7E3eZUhsMy7DUSlVh1uq1hucd46da+6o9sVVVrUm4KduLTcqevOtMyE3ZcS1vPemqrl22/TUUCYZVp3vecSwvPsx2velNsk2Z4ZanHsNFp7D1TcY1f2vnzvWTsX32mVxdV1cXeW+ffPLqzY++fP5FkNn4S2rOdeLEW9ut5gAV0nOOGnFFxbTH+dARdGOSVk3UhzKoMWspqKu8aTvouU85yb2IVfCPjV/DzD+lILcbHX5Cv69ywE+bXYB8NoP+EzDW92oF2J1ZIwm3E7/iM/dbBDe+XAq5D+IruPmJhbznvsQBjHkGBed2JLmfhci9jZ0GK32OgiKQ0DAhWV4cym6iI4x4+4Ax5edDkcJKhhfIq9g2ozSZ4TCmbCsxG1WoBLk3oaXGoq0EK/XZ4IEDc7E25wR6z4p93z7OaXjwQxuvPfEhm9y3BLOXnNtw1/qr7gVUjUUObwRTJy5SekuhZI2Le3ezkLcSUxHG0bX1dhB4Hk5J6jYzqHm2yCfmb/SyvmN+GpZPUOCRSbl7EaW8E8WB+wRCqwrhxghpnTEYWsFauh1WHnt79Lc6Bpk9j0jTFhCHGQLCiSdjhem8mD5OaGkNtDuCf8H2N/88BanpLqlHBpZrS2odpf6uRfDBD//xyYWfRKWdPOzWbhN3fuiGzjDifQg6O9FzS6zVbplN6hl4x8x1Penu2z93dVzFW4XWcV2p8s5FeQw4ZeTjWynQYX/muMgUPPSIW4PIu551DAFA9Opj+8lXbI86CqZCE8r6VG116PtP933/2P1v/nUc0X/0f7+7R8+s2w8VfaHnMx9tv/usv4rVc47Z/6/l/BAnAo1VnGFsg90PD/xa0pFSuhz9Ll4KN42dC3UtJrOFsBBmfUxjR/vQ03Xkcri5oAmQjiXar5YA6lo/4FzbZQncMAPKjrrcYpg5jXP9ILAWfYtFS/s+0XEcjfFNhCKdHQUFyFKBFejEi+mkkyy4lBQ0Xthc6HIwwX4QTK05Bdo59u8woSc11mlJ4ka3OXofd4yI7yf2Bvd+sBkyBzzWeM2LUGbcvf6KtXdtuHocDfiezU1hW+xFndFsnneCrf+YR54P6POrMF1zIhRA0JrD5cs8uiJxgq54RYEkRcGjat6VivbukYrcwMcISyq5MDBhaNg+H6Mlk0pxfOaW4K8Q8OjnxVdfj9mju209th9H1THqRXYRoSLCmGelldGuCP7vvnfLNmlM3ZBmSpVB6FNEYNMmyTfIfdPf69cuHfPIJ1dGaQPxvF0fPFFRen+aZplxKUwN/NVedR3FCBvw/WWKyjVrMSxmu5lkto95a3TAECZUm+Sr9sJSJsFXFdsVJ7O1/WY6ztLNN0MRuH3uj5arina/6ixyZbvkZLaPe2a7zTTddCoOuVesreK50rQWylLNMDodmhSLenU/hPQw5Ol/ffhs/+dOGHlL5OIsjz73+w8xs+FIZPpCg9ibC2g5bjWRDQPsePPo0cX5NW4J+sP4nelOfy/uPIK/ky39fcc/LoMbK+pbPojFcNPar2B6QbOnrWCCYW+5D7QCqP3e2Mi1A/L54S8H6NrnMQ4/pB6udcy+OIzoD+O2KS5JmYrmUDETnZYikqDkAd2zvOaHvIhz/mXv+aXfT00cDu0Y6WzqGIOkJonL89l3Odtg52XDtg69Ve+4+ddzNl2+EiqIOzddfQvdh0OpxHo/LbarGXEdEWZ8EGK0EXHsSz5zwtAJkfMX4uBYvESfiC5PnEHAoyKUANGdo99tZbgSGNaXQ7k/mhjx0SvqWxghIFVCGZEEcXWOfI1iH4i2APfX3bn3wXc6Lvl3WYNfN/i6LmldeThDLD2loEnsUyoabiVpkLT+tpr5X42ZtayuPpjugr3u7H/Jbg8/kcH0HSlF7W4sepVmaaUL6+az/Z09v66ZsnvONNMxRwcQrH0Ex6e+6pjsMPtna/VTTNTkM8uXfqpp6u2vjJxd5GVyrfPXY0g2+ML1ra/Y/vXtnyr6xBc09yyw9TT6GHJdRXnu4/jSJzHpAE1Pv/mLA/72W2POQDDug09f+hGy1fsjyy02V841tPjOCrqoHK0vP+Av0ErQgJ8M4ZG8ZB1BctywDGa22jUVC5WF26BCeHkzZ4eshwqZNwTwJcxcpHL9YNr1TYdPSjqTmOcIWvwMvbMnQ0LE1aEkDSC24YezJO19vkS4AcqACC1wNakmHt8zNfnk4TCmBtohEPlvfMdRcfKdDETECCWkSR4Rb31447VnPLZsVj20Av614erXFI6HUcnLrDcH3brkXaxL2Hef8QgzZZEA0enB2uqa4ufg8JgMobDVTtJXrzZQYPgZFfTfmKfA0GGMH/yyIDzKErwvocCoAPSGSFqDACJG9gH2NqZXEp6BuNGlyiHmZQ2cR/vFjnJrar1PHFq12hFoNwQ/U9vxz6S538kg3ClDU64aWwRd3Tw7dezS0+ugTg+mqfv+fUdUZzu/n2LqoapqCATMNbnpoPXbNRifNPhvKXbejpbeM9fxfmYcm/gr9s815TFIvtr07KeZhkuD+Z9+wP+GnHnQkwef9sP7B5160H3bn37Qsz/h3G8qcNecX29IpTceTVltNLX36Jj9pMxVdB3ib4ab9vmiiU4qtAAXvSDvhq4Ta3Ziwuq3tF+LLP2XTv07PjX6hzeF/Ec/MPePS0i2+SEybSWzNfkGyQdz9Vvl/J8dNP1AqDgMUyJ+cDA0aujVCS8efF4a6s+Hdos6xrlpf19RUFt+3sizP18DM8pC4JLic7h5hco5afLhGyfMr0MsDTxKm8jthWUSpS8fKqG9N1CQQ1bkS8LLsi5GyATDQm8A/XYlVf36D9ITLxpRM75V5pwkwQHV5w7gRUwOT9L0QVt8+37995GNV4+BVsY/N15lTKY/CyxTxUQI6qh5RKcckZeCXE8saPuUoTH7+dq6pFevSI+6Lu+MEHDsM1A5YKh/aalypJJA90/UCW8/bFIEoZGKtkIUx09aHx6x19poFwT/6l3/vh9p7sebNvcKmuTa2AfW/OGShs9Oq6sLk/s/7XHvqSlW/VhKUbqoNiFX7J9qat2rQ0PAmM6+6GjurR8aGnDbRMfe2uWb5jl2XMWJZwoD+tJsbukv5849yGe7feJhd9SmedfZSm7A05nsjgszuZ0/TuW2eujsg969MFiPvz13xIesatNEZgoPtqbeNI+xiT3aRB5tku6suGuuYkukHq00RL6X3/XcL9/112NKLYPMTpYZj2Kb3CiW+Q0q+ytQ8/Lxh/1jQLBO9z478XNMr/8FMt5gavEtMx1ja4wxzDx6xNSOUEF0h1Xb0WZnYz9K2g+ShGJfekqvaaD8ZiHc3gjtFH1g5QBq+e2hsuCMs9GrYFYil2flxudw41f0kTqpElTYbwYC+w6Bc3pDC9B23XJ+RI5qlcZu8p9FvhRKhP/D6B2FTHcQdqJe5vJcTlm6V/qcd/fKnDPrB5mJR+wJ47pDGyGj82MAhHWEAig2XDTVMSdhMzPuUurzT8Y2WrPhnxuvfYQK/it4VYtEtIYVYwlusJ9maLjLTQaR0IttliRNlBIoeaneKEaSmJGesjBuZkKZkM9MCMLnMCatc67ypJmHjjHuVAzyXUMlEeIfaFXA90iGGjB4g3hEHq2PNif404dOz6QRbzHIdNowzaHeL21q0fVViNpP/xFhc3/lXg+Mq2Y1t5KmX0nRFRiafsfsJmV6yjFMHdgRI0fW+dyAdnjxlccp35WWdh5tMs/M9KpqE36TdBvnwApjKNjqG+r4dcfe+tpPQm7eujbvPFVlmeGqMyHXmawL6T+PO/T1kGb6b08dfLuiNN3qatrtibuWTb6RTrV+6P0cYq+aWnljqS+cjYE1r1lq64MRMhlrAq5l128Rfce+nw1kmvriLw74247BOt33xG+fA6XhUuODbAkENskHtlNNpnNFJ36qkN0dbNPFcNfgbUt/z/HO5XDD+9COkQL+U6gw6Gm5fhHMeBvaEIth5lOcs1uc40Qa0OJvPImm2n6wBaI0rWvx0Dh7x5dfpElCNLhvP/HN24WinsE4zsG0+s0+6XPe3is98bK9MpMP27Nj6xF+DeBAY5vEtD4vBM2kM7HW5K5GQh0nPrjp6hLX3CgPVm9oupzq9Z5Tx2iEz/CIYdUoYmm3z9DxnX83BIqB0MBR5g9RaMkCV0VH5VGBfrOTshMrhLw+8INxQahL+DorzzYFA6eE4lPhDFtHMPHKCwZEPePxAxTYenXNgzYn+EqHqtOI1A8zSbZJ1ulH25yy+U8Xv3V6aPmqaSPuOTrN1GsoPhrxTW0/2lp/Ow+DqGdYTbf9ceheYlrDzIcI/WMuwUerLMX5mYIB2KY4xmRce0TA1uojZC+9/sX9XwvWadKhL52iYodxiu2JxtDGm/vmVlUVrfOtpx/8cEibmMq8MZ6x7LvMnvRrm9NYxJzZk24Frb27b5J7YzQBHwo1aK7bj634ikXs0Zo7gPYEWjTzUAam0lX3nzDylh7B5LzLhhlMzf7XssFnlibfNNeBCSccPK1FGtF8oFomImOixqYYIGjFLZvZBtAY7g0VhKE1pL9XQTtAE+T+QJvK2v9z2AMk8iD/W5TTmLG6huvSNZ+QVe6PGeWnUnG7Ua97MXL9CdakLtonM2nuvulJU/dPT/zJCDi1IiOKw6AuTWXuYtchql6R+wYKCQQeKcanH2m45gFoYxgLhunAphj7iElpmOUD3yFciaA0j8x3GvOdiJpci34CCRBrBpYQLVAbBUQaZ8RDh/LBIbY8z3m3BnnIPOZJVylEjb4X3M8r1LWiKj++Et59z1vX/OGtgTYl+NfuM7m6SlUvtibVGhp8xdTA81TD8xe8flbIbd+N+9+9Swqq/02a+oxD6C3tO4BD2p0wQ5tfAz1/FMyDqfXXE4nPukTeJu/Oz7K/t/JjjomOuZ998pr/7XJZML9zj3x6u5TeczoTbPUdu33Fttknsj64Vhl6+5jhb6bEtDPmTGyCqjXHUNx1qk3sLfeXtncd+9jU2tvuOU0tPJiefN4cMOK158T8Ro48pYpB5nDmmPbYedBVeQKCTfrpeEclVXP/8OG3+Oo0e3Zds5qpH4uoNxoduUPyqeV6AVSfCxVClM1rPlOdYl4aSvPW13Bzm2qtk4A0l9tBJcHhn1/BDWVf7bMUGO5CaTzsb8Z+Obpsa2kef05ESI9Ilra0c5HxK9Cbl5plS9u1HtYuoUxcL13FXFvSqElGZmyCU0uRSbPOL9AAH+LpTqv2TZ/z1n6ZSTfsXzXhwMFwSiKPN4XQJ7NhMKA+2KxbxPlkbYrhyL59/D20E9y5/krDScMrhUdZuKCJ5RFn48F0visUA4fRQuFJtU69os0qWoZIAc/P5yNSIJR7aqW1sGYyshtdcrCFWokkY+FpClh051tZuoyCaIbuHwPOxNp4WynRdAf9mbYZ2pTgd9e+Nz7NlP5pxZ5Ya2rSdc61xjOCcf8+4u8d01D7EMWvTrnaeo/Mpx3tvamZt86lIX1S3VGP+Lw0/P65H76rKPoLqqOtd0YBBK2+Rc7RJvnGef2bxtSaU4LmMGNH39chlR3wsIKpjpa2n7nae7MOdj3MY151RIcemT8Er+umxw/9ApXNZ7pkHhRHKHBNd5hjYiOY5xABvzk4N2Gb6lGHMl47wCDzBql3NP5Boo+ORh9TB+zUs0NIaPnXo+d/ydL1Vxur5zK0lkFh5irCeO4xP7x1EJQddYa967bB0JZpZTzQ1SZe8bit0AtO700f2R2gYuCNCvAK+LovHSnI/QvKBGf9TR8QevdJ4KWlDXRCRSHC3LdMyJ+TMV+FYjwCCVAps6H4+NzQtO9OAsI4XVfm9kt3XrJ/ZtI1+6anfA9aBKT+DZW4sqOG6SEU5icB/o89e+uxhqtfgfYE1K8vfF+wpLOWNVK4b8+XEQpq6EKefcqjHPDv5zOucFcexugMLCJe3h7FdHoTUF/E1pD7SV0bckvXxCooXvgixCBOo1/p3lok6QljuzCvkwfPte3Xpc0I/i1H3VKTYcpvXKJu/3Rl843jXx//aTC+kup6JcUb4pjgqLbtvUHUXZt5l+Qb+xzSqParycKoUOFqw19VO63litMxz0HbDh9Mom8LHHoutfb4aU8cEJqU2GXDLr9LYXoHy7zHMukxmCqzzVoU2yONQ/4Z1E6Zcti7ewXzmf7Envdx1jjLZ6LjTYx1F7Uy3V6aW/bFJ83wz2A+jNWepAimPCRW2KTe0dobJJ+55N/c5+p5Jx9xe2iOwHo2/3LGtKVmd2dr8WmrVqV4osVfikFv+KYHvQZdos6JJjmlvio50J+Fdo5qqO5rbioFjq8shBu/gXaEz+Fmwy/+m0nilqKRoyTdqqGqR4J47RpRpiBJ3oXCQ/JJ1Oc8EcFPrLEPpsPi4seWj9id4p7LMPcuEf0H98ucW+JoGN8RyokAK+O6Xjahtlxo4Jy0+Lgm7jyGyAr6jvxxw1tWwCMRjzqIecjDz3R8XQrCHSWIp/RR5iLuasSRWVpnykqsHFVyaLJshPkNRg0ctRHJRFHkFaYg+x+jSPCIvbhxjHIiiZlNeFaBUFv0bwtmXGG0GcHvslIdlWJsR8tvva1BV7SN6zNrrg3GvfPQBw9OIzvTsJdPK7advqm5B1t7b9nSpx3zHAVcP/c1UBsyK7n4yQOfVZh2v6mtR3Dt9i0hwcrftcfHxosvn7Pv/4J51B39+jFpzFygOBp6dLz4WBNzTZJvCAumJt8i+ypjJNPU3jflZ+/2CubH8euJTMl9oNirylqjAQLZB8V1l4mQnRL04jPmqLt3UPVOx4jmPc5PsbX3Dul3z1mCA9WsZtavRt3ZSczvscdm1WO6fiaz5xKgfQ2kjjn7pyNv6wJlBAO94McYIZ8mIB706mXpTiyEdg4NuLGse8W6AeqU7oN2CJ3DfxNF5FDABjyy6TL0YekK33LkI1JJ00UbVhTG0Nw3z1HiTwvFi5sYX8pUs2LrGiBhxjftp4b74P0z51x7CFzYGYoAZ9rgUP5QLPwpuN1xGcRG0Vi7UzbM3nDdGnpP3ixMb9Aj+zxagIx8DhB6nNh7Si0kgdNWzn5ClPJt8BBvoOT0Oc61meU49fMkBPvII6DltMF3kUCTHd0O4ogID1a7Isg7woX5YgXPYOhvawADW3HfGi2GyOuISmcnahOo0EbIpNkYxu2xLmb5d61n2QfOfeZi35L2hpedjM6nG+zZFOrRWVrb2TdeJueYW/to3QSdfgpU7Tt91P17T5xz7Ktivkqq/mLQOx5MUbpYygIu5Ge5c9Gw+YHmzetCAkfd0R8MZdmqGQbvdV5kT/Fg5eFITrpRa45m3Yy59QxSA3ljh5kjR9adMHdunUvSZ8w5smnSj546LoWDXqCvTHfzWrhufyDRvBrjmDN4eOacfR8M1mn5wuoJCs+xXDYHmqaBpmug0y+n5aytTmm5dc441o192nJu7OtbZ7NZw0vOn8U833nvtZv19UPPAz3T3ekYmMJ75HLakXT6bigbWM+4M6JCR/yAFPGqr88BXw3tHHR/e1dy3r0esV5CewC9J28lJauFhusxMn+tD23a5bW3Jkr9vsyG2dpu+qTLqae7LV+8OIVV0HQq8b2G5HDMJsS01GNWUbmTs5mmnx2gn3vM89lrE87BYX3i6hNJWiIraqVwSIDbFgjrHmm++j1oh6DaPkc1PMwfZsHf9xrKK14gL3C/gXYe2CXLDEF7c1x8d99WfXKMbm/x2cCY8OTw7lMhDb6bP4bPOcHGk84qoMHHiPJCNQ7W0w2Obxnxe1oRCC+m+Ew4x3nnELg7bcOM8z1PiMFWDQ6t8HB4xRs7Gm2iwX/0hzf1q0L10JStMbe038A3KstnBuMOHLLVkSmFDXPt6xkEflaYY2KTssNT7j5CtdL1L3V1db5rPeexAxcgNv9FUWwPOrY2n7lbfbFes/asuoCm/KrDnqjNcLxNZUpfI65ls2/9mJMPc8x0LK2+pclnpnEMM6819fP9Ohw/Lnit0x4/9KOmptVjVy3RYPmXOVjyURY+e6sR5r/aAO+/VA/vv1j/9YI3N50XTDc8c8s2Sz7GkxZ+1AhffdYEX3/ZDN8saoblXzXDqq+zsHpZFtataIZ1K3OwYY0GG9dqsGm9DvUb6beJQ+NmDtlmHDcY6nwT1d5ffPfa+sa1/6zfmIXNG7KUphnWr2mC+g3ZX0NZofRMEivfhzYOFHfzTjC/3fq+d0CfmURtUCpSkPoI2iFywN6AsiC699QVZQC0Iiqx0FXxxCVpumQ5v6N1uYNizoMSwYv8shXSIycr0/0N5kx/kbT545OkI4LZPV+eyYDehvvSL4B2CnpuFxWKU4hzBZUxImjcuaiRFLEsH2HFwPm4dEnAvRtU6N6K3x1nkS/uqe7BU+1VCAWu2zmH4SShWKX2J0UDMVSfgqORglTZavWMQPzzhfZF8GAoYIFcWBuw7TYh+Bm96lAi9phybe/BcKX17phnLg5+7DGlqH/0JsI65B1sX/fGPoeUaoW5JjaCAGCcT2NmZK+3dzs+WI81NYtnqJi9R3XSGnnRT1W4nlXXnXDJ7ANWBtPw6n5/VqB6Pyd/k9zTzVZFsm9uuSUo0E3WmzhsXqfB+uU5WEHEfenHWfjibeWyw6qf2TeY//Sn97lv8Ufrrl22IAurluiwcTWHho0AzfWMNzfnJs1ZMeLzYBqEzlMV6NhB9JdvmeOkhF+a6pmyTXScc46dvrntnWYdJwfzZqkVt1m9qimeAJpjG+zAHnBB2dzUUe5dE8QpCbxCo6XlBtWzE1QOmxbCtHXQDpGCjavA8JoZA/eDXuIDQMqUboXilPOzjG35VSoaSa+8TtdyzacQs1nvhBQmEuL54hrF/+ksDhixpV8N9VzTD0yf83uIcCToT887RdWjJATMh5Hzr6CdAhV1Sew5SKYtd+L5tbQWdNQ6QN4KOHlzf1CgIO5ZCEUlLxgWFwGTxBfrZJkM+M7wvPryloL7zIVCdQK/gOWdxEAa7qtjJQhg+Pp5vpPR6SP6fRSHwyqF4AgNAmB48kPeib/hibYW9DZgIm1C8NOK8ouUPTE2Zdu/a9j092C8x35070iKt3NKmDybYoK3HFv7btgZmeeQC5NjuajNVzpiz6mXnXSZTztTN/u4Zl1vGKcouTcMcm/8jPxQbZx00cP7vhyszxU/e+UMlWfOseJxt3xjwe/G9Rps+EaD1Qub4av3m+Dz1xvgkxfrYf7ceviYtl/Oa4QlHzbDis9zsGZJDjat0mvSvPfdR1U/0y9YjpadcyGwhhcsSm1a39NP+92LzfvODsb9QcfrTklrfY9VzFgWcVddzznOzyLzYBN656e45N8JS40ZCSN9Zlufb7r3Q6Y0vmVO0EWb5KNS00HJ/AjKBA56InJbyrtNL6e6Anq2qbeoJGCgV6yO1G6boJ1iIWzO0qY57rz7QS+RbZF4nYJWRCU0+KUg2buS/I16D27+ADkzRu5CV5iEbEWWniBikuYU84myAXeVn4h/PCg9+Y+Qtzx030OM2RYNh5gh2wjtFnpIAcBjjuLuW7724VxRIB94oqCyTcouhHwCbJTgYWnwK8c/Q557hLrwwH4c9/QIK1RQEPHXTdya+yGuHJTgIAamhFzxOgeL9Ncn4dMVFBJsfCc0+PeNvi+dZrC/R9YNUxYdlqeXPRmMW81SZzgmOClBy25p6i1te0rYtzzrcFsTb8e1SX4aWf+Bm/aezrlfgzP28f3XathwlIL6l0Y8VBoenPDA90PuBK/9yZs7pxo7XVm/SmPrFhNR/6QRvppXD5/+bxN8+uJmWPRWA3wzvwFWftEMm1fkILtJB61JB9QtTb7lNtOqk+lVx9jnqUGMd7n1qD5+V55zoS7HUrmfM+SrFZPi69Oey/0g5M7yB91+OyDTuNtVLmF3Vr019nlKWA3X8a3vhKXAEQg8wcD4pQevUH92SKAYzpn2iOmNBzySr2jsYCgTdHtV+LwfiJj9wsCaZdC1ct5pyoRvxTBDRbCTOfewUKxCH/aWDDyX66MR9xFuDWCC72RLq/aWdv1j9P6fSLv1+d7BMMkuj4lOS8mbSWwQLhlZNTmPJzC/iFZ8m6Fv4+6jyU/araJBJRVbMEwkrK4XfFfT7oczd03kRNa8meJaMDRfg0fFiSaPpZhwxsXmBY6BQ36b+DKD6/H55xNG3PSBnYp3U/7VyGKj8AjtuIeWjOWVDhR3MOYkxsR3UdyoRaXQ6h1O/w2rdyOyW5sSbOaR5T4f8586n6eG/4y6s5MK/CDLk43j6cYh+XaY6Wfe09SrChds822ir+gu0a/Cml/+6xePTgrW6ewHR6zQ2doDGMs9iVAfso0f0/W+zoteaLp/8SuNXZZ/uBnWfNEAG79uIq19FlDTaeSAyrBpqjmKwLhXP2dUAblpymPQZMt7j+VhR4GORyjr+oYWPnly04gVXFl5tsL0K7tmL5sSPL9P/8nV1Q37/F8KOvRQ0SLqzj+X7Ltk3iP7oslOWJtP+zw9OliWnt44l5n2dJ7rTY7JVp4tBvk+4Ek6sRjU1IBekVUvywkSmnJQIVC7doB2iv6wnjTsmC4Ur5BmvFgSWQm0F+19JfFW87S7aKj5N9QBrIiLE/4mlucLF0teEn5LbQJIuhU+dWT1hP4xsbRgmuIQYUPiBKFeVu9j5QR9xiLdycZdf4T80rK7jDFlBwVXLgoR6CP1JY7wxoTnP44+UbkOAPNNbI6tnKX19kVpLbIZ0xmWOtrXbsADWwi0rwv0R2ujK211gp9iNXuaiz85pjRGd6to84PxOlWl90oz3Mrza2+R+pRg+24QelcbzrzJro6pjWrbw5vkGi2zmlre4093/fLRI4PlnfHAQUtO+b/djjjzgbC/+86s51/TXN1WRc0m77pN3A0yr5t5WyRet+zxwdoq5jHY+9yeyGvtG3YwTt2IpE85pvaVoOYcnmo4ePacpl0uMjxZBE5h9cqjrkzn+u1pGfDYLjVtYx43TDj2a/M9t5tok3/maOh56rChMD3jK40v+oShvtmKw+x/yg6DYVJZP1iFPs4lojoLqYJ22G0NegsqOXzfoUuZ71W5QO/GYLq7JXvz8nwSRz89W+LISFt/FN/Vpt+nKHAA7X4UVZ9K0JxShYZIxQCH7lxnF8ekiJ2rwvNlXqhwi632h3YKjrxfS5+rKA06L0XqjRkEAYgm8uKoQShhASStnXNtcZdT2Qm2PKI8ATGjHOZf3ga9RZ7xeE+xn/+aMPS3dRG8BP9gTXgGcLiZRZMt88mBtkCrE3wi3rsrtt29Q8g5y4VW9iMSPMK1sRdWnVUE7bxJkBXu/lJMMNVx7OQdO3w6zwz3keubUkpjdaRnDYwQky/q8dDpaZ4el2KWpj4FDrm3j02yb4wSaGDEcQi/Qe7TbjxLGHC2KnBPsw+mhwElpXeOtMeHiCdj5OBTMimoIoGDcUcH76yAa6x0q5q+71VwfOIrrj98S4OvuBr+lBsPXQ2/2rszdPJ9iBZu/s8KVLJfO4IB2hNz02q3naEMUEBfL15osDNv6QtOV3YgtHPogMuhgqiF3PehHUKB7DZJ7m/cSH85NPdx5ixt1y0XjyQ8qpzX8mbT9Z/0yKZ/QJ33lTzPJOm89SmiQklH9/KlE4kgAzx9/5oxfSJSrCyUZ2TmTl0w/jwdbtM2jKswuA7bRb8H3LflBWzlg314ucFj9ksvL/kiVxzy9UOVu60oViA2gn+XQ9sQYxAqgvlqEjGk0F762ryjDOh/Ylyu4po+ta8vRqsT/DRj25jEHcHVsjexpndC8UAZIZq4mFpvVyMPrj27aoergobcCGfGlOWGLDQvr4dNC9bB6nmrYOXrK9eseH/Jvsc/cMgtSep6ab9/71rNO1+RQkFr7xB9prvkPSWSd3QEDd0k+aZW3w5XmLdVmHPOcdHJenbEXn8fOfi2qkL1mrvw9sYnmkYcAWzDn8zFtdBeaMv4h94CWdaPmZNuVUcMQEGbL2j2vYm5qZSeygW9++gkHb3uLpJlCxSYy5S4WqQfGuAqZ1/sx4Lb4H5SIOh7QjsHB30ZVBDU8QyH9giGh0AbI+pD6JDB9sjGSpl8WAk8CVdvfis37ULS/n6fKvUfKBN4ojjF27iK5AeMT5FWG/KsxjmuFOLkzScUhuC6UIxJ1Omo6sl7QzsEKbcOiNG5+raIhWJY4F6+kAg8f7iXX/5yi4Mo8uWHO/eggARTideQWwv7+DKPU2z4qxfWNLd+NxEtmaAwnCbG9INHxK88MHY/Xw2dI4xO3EZoVYLP6+oMl/A9Fcvvvb3iK4eNuXWfBeNSvF2YQ+qZuOXu1v0RUWb05vFNTZBdtgk2fbQW1r+zEta/txoavlwP2VUNJEU0k5pp9a/GLzvxrSR1nTB0Qiajdbo3pWB3047f1dhr9s8h+Zr9s+zwHY2+R/hB0NZ7QoCzb+XhxFMP77d6p0mQEP9t3L8OcdPtir3KrKVbZ960WWQ+m3wVPTMdBVV3kq0qEn1jn2d2D5ZFOS1wczZdcZor4faBMoAEBndYvODkJiie5JN25QBo56CneglU0oob8Qhoh9A5jGxLnUf058c71x6RaMQj4rhS1/N284z583LTf8S5fgQV8hh9CBPNJynWG0uh5ySSYOaJT9+Mk3lAo84YXxSXLiAghOsWoZEQPZeYI/uIh0I7w697TDL68UgFgHhJhSe65z8uiIgGjvN7XyjvZGUXfivcGHk+TFYcnrcvaSmCciNC2Me885yFU0YfthVp9tfDT4gxMjJE239VGI6QxCMrI8YB4Qbk1f+3OlqV4C+cOyidQuiu2CY3BoFHpukplv5GjPfuiXfUqirvqgYWj3K03arte55vIEL/9UbY/NFq2DjvG6ifvxqalqwH2NAASi5nk3DNnGjLWf0945ac/t+kdZ3x2YymDCqrLO28YW5j5aXaZjiqQ/LNcG6b6GiuIKC6pjvOvibs25p89Mx9rJ8hBGRWQhFYn3n3XIbN603jGUTwyD7zpt2iZ5mv2pp9x2THI/quiY7hR79vsByVZVf4Pe6YOfeCMiAFqY/jzqHwK73z5AP7w/iR0I7BTNMAXAMVAz9wCIwbBO0Ig2HsbvQW75qvC0zqmaZUU51CWvpicm2tDyZPUG5hQbn8lX0rd8MT85qn/xiyuD0VeCHdk9fBJPsx2sYEjYux4dFUJkjsgyMxPo6AfPsDq8/rHygvkQIoFoFqiX7bTa8hHH81EurabAX5KKg5xRhFq406J7ZbvvsVHHkt9ulChCgWG4tCj07S91Y0qYgSCoPPFGJEJLBMdCpF7k33kJgoWiDA+oOhMAuVdgrAhb/BsiGgwfcJUdG2YvaABK+YRzwOdQbdrIkq2ldPIUU4XjjXyol9hdGqBD/dIdOBlPYdLcJuub/kqGff3jCnQYxXm011SyFTmaCxVwwr5cZm0L7ZCE2frobNb38DjbTNEcHHzU2mVt3VnDNLu26FWQQ9xXM3QpFAqL8lzbKUHwkL5k83xnWtvJlH+I1tGr0w84dWvLSr8eem/b4jMLhmPaC7tvgK5tbo/JtHi6nji+vHrmXKhocscybLM4+1z7wfWKTf0+7bdB4twq8yi/S73ni42jtYDsd165lpyqO4E3oR2VZQBiyGzYYHpVg7XvEjXaoQz0E/HtoxlsLM1eamclBywM+BdgTO8PSCcXjLPkQt6eCKJSpiPbOQKej6M3k9UClUbvFt5NKWsq/y/CZM++LN3PQr52Vn7MWzVT1AZ8dSN3cjXcf7IGj3y+UH380P8mvew3lilaLpP/Cd4/pXWGBOQd5q8/ynqMvdrmOHde1mRLGOSA0JHaaXtiSjpfkmN7ekfw5lZBfOI4KD8BHwAnGDKYP5Yx6ibn6H8pFQKNP1hwrG2LkPotvS0OwOLlLTMCqlkKBsc147eIVggXcjquGCMgHdn9rnRo6siIA8b/jX1M+ybk5hhek7xp4Jxmsr98mta4OvYDUR+yqDsBsuJY2frmiNdXPn+oZ06xWtC2n3keU04GvqIfvlGmh6fwU0fbySCP160ElDr4JmT7TVTfJveq9hnubcmvDKTbKtYHZDY/qzT6BIVCvZV1KKlvPIe84m7kToHWLvEPqIXzpgypOy6+OOLLiTb3XnWj7616bDVxRbT65uetEc2RDXpXVMdoIkH0V9veda0/GIb5nyKCGPK2pK26Si5SLTseVnyIpafjwes7L0EnwZNzIXtV8sqCv/zQA4tS+0ZyC+ChUER6Q2GN8u2mBrGDOQbsqphfo9R4NfKsmP86KDBge3UQ79SrADTwGWzWsRcl7QzWuw/KTfEw5aFiqIeTB1/RvatAfe0K4f92Z22i7I9GGo8xPoztxBtOXrUls/38B5vn4kpCRG2F+Ml2vsRnWCryFv2XkKEu0kRLZnaynM51hX/jgaRpdNAGwJFnXeeAxtdjH2oylMYPooRre7eVnCcSnAIKvCsDY92LQRTezuJyszf1jwvLeyNvrqBREjAWUDQqypEi+kIIdCAimvxHOY8+5FwtZACLzAMaN+wHv13DysB1QAvTuzXlRCQZfNRcG5lrI/FMnQqkOFzdiopBWD7qLdUZgLXYW0Jerizans5o2gNeTsB9jSG6jcWu/T8oVLOlnjh1YXpHN7C96xYQJkxmXapsXZZUW7Idysbt7URatu1hmqVp7GkttUB26Ubfxjdj3Q3jdno1p1MepF5Rv7VsfHQONWfcw6G+Fo52FeD4Mc6KuhBCi8cZmxXKduXK95/dyui7Pv1c+S9Ll1LWat0I1r7Wv0Tw895DrjTQapt95DzXl5y/YyWMP5sIP4nhsQO++4c8mAaR0y42nnEmiv0OF1uqgxUDl0Acb/TOWcBm0MDVPX0qY6SLiiYLwf5daAoOm5Kf/S8sVq78U66gpuTa/JB1AG0Pvat9inPTmwVVdXfa1p+gLaLKC2+bdR+F6Z84eC3rQ39Zej6HgvNGS/GBQUBu1tkfd0sHhgLDJ4MJz7HD0ZQ4LxxVFEX0AQAsuMNung+zXUDDgV6uFv0IY4CupqdNh8hfPwcoHMC3pXXzjnzLb8EMZB7G3ZtIU8OjNrYaTwqSh5qlxvS7C8qL7IYhz5dP8tQz5f/Q5/NNZfFvkxh6jeLXzPkPGyk2ViGo0c0R0Rcak+BgUP741FoaqOXhyRR9xvrIZUyvCC+A2UGRzV/bzyg89Q+GXPe7/dS0PIO3RRYbSqBj/D0uZ8cMOrjKnBN0rXc6Gl5BvXrNUMcxxTO8902+OMYaqjmZNTFdf3vN/WXUHR3t0yjVFNMxnIDGO9M0VWF7rreg2JI6m0YKJj5Jm2Nfdppxzzl3PNdUjrb5vvaJ77TFOb7+XhaPLTaI8G0Lk05krSiFcp2NEcrUB7oS201wxAZ7Et9BbecrT8tJ9yjz1zHkubj0G/+yRcoerX95sTcsvmZpwBm2ts44aJgwJ+KR04dSMT+8CYHaCdQoPmp6DCsj59oEiLP65NTQQGKeMNAeNYY7+lH+JC/tBjOzgNVpazoYOjDDrXB0MZsA9Mrqbcu0ORCJtWRIPqXcF5HwXBX2u6asFr2en/er35+l/SbxuFqYM556fSuQfpItYWI3wl6R+C7UKKliHBOEzT50LCMpOci4pMGuC/HJU5f1toQ3TttOlyema3QZslxrepTdUcQ/kYv+xi+5cE+8ahw4liXtB8IwXFvdMYsRcdwxXu4kZtitNXFwlsjjvD0SveL+Bw30VZ/ucd6iyEA1ZgwUqsF4+8siAkHLrnQ0KTtxVHzKzLYAdDBcAZ7ivUCKJr5O2G4qEg2QtxMZC8NdGqBF9VmpsUhTcwTq/o2nrQFq0G7cMVNaNHB4Yr9dw6bwEpLpB57pJ9h9R77iodoh2e4Eqkt0tNptOAYuubTqV3yaBD8B1ib5N9IvFpJecSfcskJ2eeT2PONdERzzuCgGfL7+WZpvwyjG9/Ydf7iib5KnQYbqjSLbt+8H7M208bhB6YS+zdn7maMKN9i+Cb+5BaHypDq+qo+vzsm7b7G6BMSEPuOdqE7IGjhmVbgFoSae4cBqPLOwxXJiyDWV+BYdVQITgKEvooPLQVnDUY2gBD4Kw9uc6nJY2f3zTH0i5ae9FPRpwE2gzWSqxl0/QF6kmjh7tBGbBJzRkuXmNHWj3NanR4/lSGIMLbkuCH8HLjNYuI8N/2avP1x1RlswOpSxuHxqsBSWxiLYjcMJIoiLkwHppHlK1S5lDcEleW9igxOEKf8BMIWC9F1R84vNNpbbII34mdzqV2xYkYawphAYWQKHMQDMSHULrCQDGTPNYMXOCC3J+kpHKd9EmQlKS5UcrIrKi/jp0nE6scDtTVGbkPnicy/r0ndplSFmcZQlmrQlUp1HY8EMU3QiQ+heap0VBmLBg1IUMfxqOs8iC6vpgn3Kxc8K2wg9291l92sXVt8FfWb9IXrt6kfbIc+LJ1gJsaoZqx1BHvNflmLtfrG9Yw1LMmyXfcYDqTbe1FpRRFF469eKo78VVYgAq5UgW1id1POiBiPMYh5R6xz/km06btsIwtBKgohLuEXhPs9XMgCgzGBF7FFlBopGErlupRlHQ6uufYDjV6h1+bC30pXJgAzF3Cb60ZALZg4awIjDaptzX5AsmnuKHhr4zes7ND7k1BwJqUW5THn3xYCDcvolfhw6hzPGa/RAxfBz2vgfYJw2vf/VAhCG3Xle7fMwPh7K2hFTG4atJgHdX76fHrUEy6ePOc0p8GBWoNYquX4XmKBN3Ig/qb2veWQYOwW0X0lRMOKwxPbKYuYQm0U8yFGze9nL3+xibG96Y6f+y/7mgtchxC5jXeidD8hrkbr1mFhpv/FoDbf3xkAf3aSLqG71VpXW4/uscFBedYlBO/7jL5N1SBGa7WOeIl8Gl5bfsJSwtsId97w6G4NzNSEx9xs/w+8MPa6Li88iHJ9cRmjlGBNsrJ5TjfECo2Ar7wwIzb+KryTlxj46Gc4Hx5xHvmr0tUMoD8Z7zObvcP95uyF5QRaU37Mb2PW4vFiPCLGDGxBA0+RqZtfbQqwZ87d24D1DdtYmBp5w0b+TQy1q26r28Ier9PrtzIgG9wVoRlNnlX3MmotmYfdJ+5jmKfU9y4zuJUGlRj5riHdr408cqrdw+99sBqVEb5CX3OnlwrEH6H2AuaeNddpjuhNmeb53jHKnredtJ2uJFHBtSpE4ZOT2xO1J0fPiWDtVulHU89CMLCW2ATfUeTj7bpDrrmO842LZD+tKqGPvoZqOmdArSJveV6M83VctrBUZeE98WehLKQewfj+8DYi6CVkcQ9Xgr4PdA6ov7WHNkjg+D0IdAKGGyYRjVlX6e72L+YdC21vVcAN0eFfwFfbKJNWe3P/XXFQVWQa+ECa3U02Ml/kShq0e3k2MXiZ9DOMa9x+mLUmWG2I/Dj4i44yBeFz3RkX0vhefuiRAWCR/SjmKgVxH+MDdlHRsH0ok1IS8Gva88/gdpyhkfXE3j4CKrIefQpMUoQOuOxZiYo7ji1Ejp8jIzPw+mLRvydTN7vVM723i2B53GfnFfowvhD3z3EMx7b9qKyKXsUBJ+jkGLel4RxkPPcFVAmfHPYlFqusz+5maNPJo+phNAD8TgBKpi61deVbd0Sj4PZGnHIFYbHF2YSdIuEdtfT2wTjMqbPN8m9Q9jt1V+NH7MJvEvoHTt95mnwDXt9xbGBJ21/hkHHXrzng88N/UNBgvHfYVfs1IV1vS/t2svnbFKv+Uh9ytXE51xNvkP+M0qW9rNE+LM+bX7azsfV4iu6ICwQwUdlaO9Nw+4a0+eWmkL1HNd71vEd9V6/SxuCkqmd123XnBbBt+rPTa192llh19w6JjzcMt1BzybfiEv/3wuWpWBmqF97b5B8XtaJLtTR3AsCuY3q2MslDVM+f+kLZ/8eWknAprKOXgArXuwCk/J6V/kSZi7iZVwVNA7293MnDTOvDoYJFV1dsx+MPQgwNZfK6wkR9ciHlrrJjDe1mK2RZnJ+Im1Y0rICNiSo8IuhBdhRWXMcVWRoqJzAcWkedKxPEhGvkl2zfj81YfxwmLANtAJezk17heq82NiPWio+Dg63jjPlMBcAj8CAxs5GXxRJrFiSBi5gMiVa7tDZkenaRa8eWVW5dSqMocETO1/wW6bod9NhreV8QYfC60c42vtoFWycpjJ8vTxWacEj7G3iRm2j7rx4b0vtzEP1TSK5uHXFvNFaDOSrQkGBOhQqlAeFMr+6fys1zR95fsdLyrJwZU5ny231QeR5XjAwPFSCgXOM3pmPRkwuy8hDs978ZyphR7FN4/X0/jP5RyOCEuqWbqJDUBT9Y2SW9t7QzBu/bmrHHYPxkOlvMJfUc5PUOz+T5AskPvgzSb6jSVcMN5lWWDVTtqmu6fra87tc9nPD/2+wzDeHj0k9vtOVp6eh+zMZBXqJ5jUu0UfH7t7S1qcdUq/kPKIvCARpUQjAnKDNN84T+cesZ9OPVrwqTB87GPo/+ae+/9w9qg0v6nxX1/N73zu9s7b9v0ggUER//55LT2vBrbTjmtMk8xbZ99nqM+uXdjX7CDU8/U6wzDTU7mBq920f+zTyYnzoinY9mg/LDHIL8IRzLPZdFWDh9GHHP/aFcf8aBGPK0rFFoQ+MqekLY6dS/R9CxL1qoWk6RDx7IuizOxMqDPR+vTTU/9efjTvfqCuUEb1hSu1ANu5KEh6f5sZhTD0KAStw8w1wjh/E0ZsgIUyCCKJ9+PbKuJ9ACRgGY7eiGlwWWU7gOEhGIk0eokM28Wz9V1ACdlPGHUmfj2t4Cl/Zo6q1FpHTTS2wSEqjyZ93HK+Js9PH3OTboa6R3tfb86aJzNQ2HUFwV7H11ROFuqH447tVqVUv/azjuUdBmXFihym9Tux4wWzg2l+4o7V3/8XD8cLijkK44R7imqLYdyeYGPN0+lHvZildRImDXoUfqjKDRtmWxRaF4DcHg8ImPFHaZnr+dmpUcq8+vctFLV7xPJ3K2eZ0wt8YoVAMjBfbeSQXoCH/az4eee6voURw+gAsPOSc87mux5hv+0k8xsYIR8C4BK2MVl9Rj7QG7zEih473IGOb5mDMXr7BF5HpLzCO51ovs7WguOkCkjtOu7jlitL457ilNKiR6X7SaFurDKM3Zmi5qjTSVXGlbwY63XfErk3vHYZTn2vWtS8ZKjry1OD65tSPO2NmW8oLdW45ktE4A8ftpuV20nCDqbvuOM3yOLruMXWzDt6+rlvuMrmd3nXnqVt1No+N+EY6xiyjYEOtxGtHaHrV61P7PPGUjvWvZaFhJfKajM75rgp0Ogq16u7Gdepouaw0y7Pb0z02rtksm5ttYrnGtMRTnTuuNMGOh2aYxvWlqc6bPgFhHvz+W43qmd6s7mi1IwOrtmgY9r8LZV4mh3I1JmCOCobn+5C3DPxXzaDsTST80q/hxnugbODYDyYcRE+Q4Q5yV7CfXdqe2B9WvbEEYEZcyr6Qe2Y5pBdQHq3lZcOQ/YiIp37ej4/781KY+Ri0AIaP71ehx48ZNlxGN25HaKegu/FWfoJTDuBt26bGjVqQnfla0hS70ShPk5L7OxhzkkuERc2EWoRimCEfzYe/Fz3Jdnc4bxCy5pvBcpPbU9eUB4enxv92XvaGohcTTIqRUFfVDGtDo69RZDPuOBjXJgv1EIMm6ovSgGfQm1u8jTyHvOYrPlLmCQH96M8jP+tw3r8ZY3+4f8NVC6AFoPcwne408HTq8/9I19DDG8sQawJ5LsHnyDCvttLJmUHx7w1GPKic5ydJsc92EYXzBNEj5YzIhGLblhdEvr/ysvaELvQOffVx77BQz6AffYySyBAG6pr++JPfu+AhOn1X18y6R/eYN6vgOhnGrZq720WDVm77+VfHzZ6t7fnGtV+9Mvx8w1FHtMMQUVXuLx/i4secSnON3/bRfpN32qFh8+8xQV0dfLPvlF4LD550PbXtLwy+F6Uc8KpmPf3+Klr3OzmRr8yzUQitT/Bz2ptMtYkoWrqEaqaGJkykdHiJtPTrqFm6OMtAO0TfzMd2iqvbrrt0Z9U2tDoZHQyC7hBqCjOJP5pb44FkoO5Keuxdq5lN3NFaLc4g9rojKFhighUODtHX3Ty56dteIPrmeWblx+19Q5gxPMvrTnrbT75iPR4O6XfqqtsNY9TV8r+vjtL1LqOqoKsr5FjpNYvQu21jCyMOcXcFEqf+YF+f7S/fJvk6OvG55R8f8NWblx3t++j1bNpnuyro2IEzFH3/f/7Qxl+ugjJjGfR6ug+sMCbb7uSEiR+QcsPWMRhmBncTyT+Fru2SZXBTCzzZcOwLEw9mMO58qu9hUW8/td4V/eHs95bATf+LymEezMoO4OOuo1tYMcIU05/uSbf40QEw7k16Ua5GjT+5GG5aCwkxFCZ0amL6r17jcDblnWi+S3K6EY98esh8g6K6gu8oWmU7Xsq9K9Px8R3YhN/mdLj9M5iRd5XUHWHc95tU7Q56jMznvyXtEqhHKC963d+AImEIb5+p2VspteCVjHehHnbmHqmJe9dncxfMhxvL7qO6Ib3259RlhictRzSQqHGLIv2BJJsgBs83XPvVodXn/o0SnQtFIsS7xE4sr+Rlko0TdF0/5pja855mmj51c2Pu9TkFnhsRozuPH6JqVb+kMcozqbwB6COFpfWkKLDFqEtwyH0S0hyE6Fs+iqz7yVZ02RgXoURggDCzgs1WuX5E19jHhtWCWJJbvUA9nTuEIeaZsH7WcjjHUMpj1jV32fTMLue/Syo9EjD0D4mPLFJ1XTPHvgFr6DeYOMPWL3I+XMXcRiL3ewg5fURl7h1dafCJjnaAfxuuVxwMr98XfVJT+4tPDpx8dRabHvje3Pj+Z+khEwc25fhJDUp2LJXdp1BZCPm/Lw6iH7ty9d6lo9UJ/vpq7d2eOZYFyxrEJIsZYIPu3/HXfY796M5lTrw+b1+ycsWef3kJOf7I1dibRNyWmzh3BQTnBdS9x9vtbBj3tPcmuWfoEmCLmIO3SBV3CL1DjkEg7rpNph2tu7UolOIQdmS+eCLJN48Ncqx7i2E5mn/fKABa2nyxXNMGWWGB+np1cOMAmhN7TY08d9KDPbrBvXB76+yb2n2wNPvGT+M8pMXOKB1/kNEUN44RnwSbd6AiqKPsx11KNXtADBW/j2Xqw918BRxG+R5KRP8tas876PjFvpB9fx7k0wxw7A1n96QX6XsAyo+o7j8FYwIr5EUNPZl3D4azRiyEmxdGRfgKZt7cH8aOoyvdCVofe9DD+G96ppsGwvgXSOh9gTr5j0mkXGxoPOkGNdGTppB2syuJ4tsA03aiZvhBM2j70PtaZWSQ7/6I38py3EdHw1IsFmZnvDqUjTcWlwv5mS9z19yd3sGb6TW+kIj+PSRTzEtp+lJqzwbjpKIqPTTA4YzD4dQuBxnWi07CUp91LHBsgFQgz0ORWKD2+R11U4dE5U11PbE6lfrJHnBOHcvm7ngdZpa0cF8Qw2HiQOIUf/XKy98iUQoBjNlSpIWQByqo12Uh52rx83LziHP2gGzogcdgZ8bBtxAQbTMU50dcZT+q6Zhedyw/9z+kljL63I+pn19JI8AbIJvTmKpUIbKu9AbsSG20E70L+1PnvpOxpAlyUczgArkv9Yly8vGHQsRxMSWIi4EVqh3GlBFFeItF3HNlXjUXtd9+4lxpGsfU7NtcV+xy0NcGYO9jjJAUVzexnYOygLDbgR7KEZx4BTKbUzEm5OAsUGU8uPyvvvw5f5faaW/nwU/cRnEPQMHHlg+hus5M6ekZnx44yRj5eoXeWWMdjRyRQ3pHeE/a37NZ44OoXop3pck93mCoQlHneCBi5QS/JGh1gr/ta3/csG7PP75Ij+lBxrHxuKYAlZ069DKI0U2+yMhuR9R/5Hi79vpE62l2tfpOdPBrtC2tuCcEcIckA1hmOxxtjb8urOQKJilnrnZcMKvh4Du2SLQtEHBH68/At6IuOmZDjkkOs2gyB1vbb5N+nbmr2zomR7pgemSa9NhmR1442KY+4AoUZhj6BQTRXMdvugO26Y6tyUe+YsDqxpB5Ro3e61iVWSYmTvoUsgehQlgG2cf6gPIC3Tl3GflSPhzFwn5+jM1wutrhRjMuA3VJXxj3JR0vo+ZaSc/IZm6ZJnSl56qPDuMH0RPUl447xb3MiI55jgfKo28WlTuH8gkHx2h1ObX1ZIb8CaiAFXqyDHmGan0IEYhDjNorNu8U/5o6cl7c3eGB/bydKkJFVrIVKjCXKnBsOLi8QqT9ER1Cz8El5gijwgDtNtQ5xFKvkr51idLwZlVTinIFuZt6zqH0obw4Oj83X3oP4FpNVc4bzibew1G55a2m60r11IN7VZ07kuna36m8gR5p9gS6Qs+Gl8Z7YsW6Uxecdx7RnIYrlxxSfe6fKNFVUCwwTDyN+jKEsAkKhtvTrSeHLnSRv6Re5JfGoW5LAphWhaKE7yD630dPcx9dx2LgyAz5khUrvAvXGa3JD5QdPI+BPJJ+LIJEOeq5cq5F1OD7FQrCiQrhU2XRxzvoW2+kUsKmYvb1+t9H7wHzwv31DIooDDxNutBfeXE4d58rdF86t0GA5eBxsVrUPq/S5kx/WGFExrGFX5YkjXUp21PY9s48DpMVcTsjIc8YoSaq+CJek2ivSpV/SqLR6gTfAJHJJ6ngg8wLtmfn1/L0jyFA8HuylY+v5l2X043q7TSOtxWJvCtPuvfR0fSjEKaLaVwyDq4W36ybSZ414BDWmnMeIPxmWgZ+W3xRsx59zjHV4YY5ELeJvcJsjyHMzddXDrPTBuuA4AolnhAj2uSjR+oNUcE247E0+o55jnOO/3siHOkjm8cM+nWf6o3V+1ojJJZAQNp7bVNz9n9QMczK6jDmfAbqy9CKE8F5+Nh4LwfQ3gBPwOTC+WTaGx5yr2IRfko7oh60qyloQlS6r6HnMwNx1a10X86AMqM8JDEaxeRbKG4Scp9Po1vo4eGMP0qjDsdCBREm7clbqJT7lCxf/uo7MG1d0vg7w6StEbW/U20ySbRcdM8Me/IpjOuT90id8yEJBo9Td/ciqOzjN5umfRGXfiSMVJvUXfakfmsvyuwXoGtF+7v2kxePyEUKUBzeggJY27Dp+m5Vtb+h3WHFCGHiMIxDmHzbAl/8RH2LEDdYN/HaY2MmfcAEFXZU9JY8o1F1jowXKJ9HpC+mIrxAkiCFZ2LBKJ6rrKvMuvmzm/899MI3qZCDIFgF7wb7EQrj/nR54D4hDn/HwD3CwPUirHuq+5s+c78cNj2rQtqYoVcVqjMEhaRA4b5DdCsSV/eocO6kFodeINBuQpm+PEJ1iDsQw0Ve4H922hJtQvBVDg/QEOJlpvGILWHVYuqIV/c6c9u9X7vFnViEr1zXsGafumn0PF3uEHNRo+cQdVMbLRB54rAu4QdbS2/dZ4/gm48Xt4i8AcNmn5sTSG0NCeiCKU40wbcmywZMd8BPxDXSzAOCa59vnteZpam3y+LCRF4QBQKfGY6jtUePvIMtFIA1KmDOB+Dg5ms3hz1PANyRBs9ch9tlmNr8bKOih1YY7d20x1k1WM1M0xwEe8QCXr2l4diKLpCzHGa91gfG3ka7pznXEfeRrjTKXZ5I+GkkaXw/Pu71pTDzX+GYdXqjfvqlaaw6GOxFOMqFSrdhofvk3MtEeXHIS/LzrWZbyDGZomUf5yy9hnLoFs63uHZKOtJQqkmRg1JShokt/h0SwvCupKb4neCzu08GulaFrnUX6rx2QaMrpI5nr9TERmqob+jju5b6rk0Uy/gOdaK269oA0Avt71KpLVToAyv2I0xn/4MCMEz0DoGJZyIo/6XD2vjy7L92AY62PhjR4RwYqlVMvhFc3L+NflIxMgWPbJu876rtJAIhPxkuB7HBBC9d4nISCFCYoByH7Dr8QzTRseIk7clKh874U/TOHuQc+x4rbguTfhYewUyj6xmncc5/G7z86Ml4uG7uXJ874mVbL1s68IvBCynODqFkETnFHZt9pU9ajq8N+IUO37uDsWkgLO+6fwqV56toZCFtwVdEtL7nfUKn1+s+BdSeN5ZRRCK6hj2MSkynj2pqSXxo7rhpBmf6ErRdYyLaW+dYsbbuT3FcaDrHGm01K9zc112/+dZquDkz3HKxmXPdbCrOKrNKznK7abvadBeoMher8nzfu37xMWemM8+b7i+zoCr+80aY+XPdamZt95ueC03HjabrYlPxXHCm7ZVzTTebij+96WqTfhnmLaBl7psuM+0VdU13nDqkBV/5KabP/Mvyw78U2/7o7Ud07Mx7/dqIk1F0Ow0YrjZvhVZABtJTqPNZCG2I+G6xjGUgzOoPZ0UuirQCbl0OXDuValFmf0WVA08YJ2nbJiHNpRLmT2HWKvqElNF7UhiV//wXBvfvb85p9Yk9JfVWq+so1T5ReUXk7UOUz3pq7yoiJYNJYbE7fUj3pxP70G8nbjiQEpROce1Wyr32aw9dKv7x19mvPkyS/unG6S+SIulPQWIFIH7AuS/c2Xc1xRGsyVvnwRsbjNMsi/UPxvXOi2eiaQ2PyLXwM8oLuq7Md5yKTlb0nRSrUG7ihDEiV5Ani6O4GJmy/FB15WHaRM4FE4msPzAmbr5QHrx3PCZrLxapFkN9ieFNh96XO0NFuO9MdO9vPdsRAke4YxHIOw9dWDD3qHcq6pmPFXoL3WBBWmhLQh9EmxB8A6hotxiaAccnvkHcO2Dm7Ld2/41vMZytnrx6Mw2jn4dETNEk6pqRViD0mk32rXPWzwpX7GNF+KmqZpJ260f7as4i9opN7M3wrPlTbXJuxFFT9FOdX9b0r2/uK84va5J9Iyxlh6V8P2vRq5R9Pq04RN8m72qzdd5eIMv1ja/aJN5NYwsAikf6M4pD+rNefN9iXJ5wYMY1FtRint/+jKItSmv8yuA92mHjcT/vAJ22ztgLZ2UMf/mML4fGxv9CK2AhTFtHIthv6GnZXIlOPck7W25yFlNmFaD6UD+YELkIm+FthzRov4UyQiQJSZC03Yu5P+XSbrT080qjbLOi8y0PovLhZX+ykteBAc5M6h5zd2XSqaR2nxKXV9RxJRCrOcbweYzZRrT4o/NhduwKq0E81TDtShp9ewiKBXrvmzjK4zz/cXbnPLQTjhfuowr1lJ7OmbvHBeCMBueJGhQ0kj4TviwTJMrXbxX7HIaFEoG4R2ma7caO6m8q/TYf99nl86nkd8TyklxvUPiMRoTmO5xBXAmboDHzUmSuXHtELCGJKBnqW5yHKeLlwIAgHTxvzTyGPGV5ErrbR+R7eCOEiKjOhQuRi1mUrxJoM4LfwLOPkeb+a0uDb2nkM8i6dOvQ8aJg3PeY8gBD7VFUuKe5ZxbRNzX6iqe5d8i+JTjY2ntz9VvNOxaJP/PIP1Ny3mJZtqBgxbG08QoTBAOD/DuCgfmzyT/zCL5D8lWW8xbfUsQVb71j1R4xSLlkPiuQ+aw7IpB2NP3i4ltMIP0s+HM09sJPcVbldVbqzf5l8qojloltPqbPUTWdWKffOivkZtxt7qGrNh9Xdjd4cfgGbphLr0xZya2DpJ1yOV9MT5sX6rH60LN8f9wiWEuh53SfRqSFSPoRLuWjWcwHPlGevFCZ8RGSdHBfwvXv0fD3o85xW3TE5QaPPcZVeo7dAglgrFLLUb/C8kmcvCz/OZ4oXhQwSZ7cCRPPR2/9mWCzhspNUCya1DMp7Xx/fSIQUBWis8XA84zh5zsfNQ/GCY5MFErnEQ9/WOFnvtCiWKFLTgQM7BRKFyUE5b3PReTlWy+VR7e3dS78TLdKn4H8b+Jh4jYWmGjBtoohqvHR9fcO+OiyZVHn9p133fuU+kUnlyT5iXDeGRC3vrIFGu1j2zZR54nV7l6I8EBFjy8Ejnhcrv6KF/tslgttRvB7vnTlRlC0GY6ZjkHIDcLeTa06bcHI032azIPm1uU2NOpjibyvRpvEo2OuY5vgmNp956fkrJ+as8m8ta+odrhA6JnqkH3jvLV1tPyedt7Q9Gd92npPe5+1NPq2Zt/Q0PvT5kytesr4Kc2WyQ7L+s57Wny/1j9tx3dXvVWifuJKuppfQLBHATyBwiP9RljGSK/q941dcnTI5GarzF5ndoau25jE3jbPIWEgV8345dDKWAY3Xk+vyMzWfknEj2crYc9+bGWMt466XL2eG8/tDrMc4EXEKaYtxI9uS+GuCBp9FsoFnWtXcNsMqmiigP5twfgQvYYoRsYtDRhzTIT9nvchfpKrhzqmqXA37fQMnokaLY/abyl4zH4U4uogCpyibpu+Hw8833j1l1AknoSrVzBQjqbdFXnvd8z4v0jmxefGIpRRVNzbEYl8McQSIyoWLwDGoxL9b2iUAgvHj3u2W16X8BX62rytWJqNznr9vVQfc2J8UKAKQSCpvmcOgu+CNa+vUD4Y87BT+vzfI9TvjMwwr+AfN+7AYyrI/eZyKFwjz/fcxrDzWAkb41Ni3lxbm0e4aDOCb6A2k5kFTFtlkHzaApg28dC5o1IznQfapP9rVy7hCj+ROuZmVDwtvEHswST4OUAhzDLl0T2THsF0x/0xT4PPbE29oghCgWvKY2v2XfKueWY9Nkl37Pft+DlVEAgs85+cq+lPKX47fMcUyDHz8bT8mu9YtTX3oqZfJO4p2wbfIvyOpj5rmuVk3HkAmqfZV/SPUG0aH7wvE4b+qn9vvvXFjubfMucx7fDvmLLs2EXQBvgabhpPD4Rhh9iq0nC4OypTvpy7PxGkQTh3oDLu5Kg0a2HW+hRP/ZhSfAxlQCna+WLaoRxtxvMWWriEQpNsHXwON75MneG/oQS4WuSEF9wS85xIISC55LVGyaq/TxJ1d3XtHynnPaFIlPM9KfWjGEVeA49Rc3MLTN7mNF31OXWvPwJjgBEKEM4Ao2IxX1wrSmEtK0J+zXN+COM4vj0eI1wWvptxlCuYX+IlRn3lJwurJCLvAbZ2LSwc+dmMDbS5JnTCVx0O0aYpcYS6wPCRM7LCo8V6Gg18GPJgzzevnUVRPw1lGHiS41rU7/E1OO7kPLnh1GZtMWbMoFjB3E0X8f5E5BV6/9tQi9+mBB+fqFuDKlxtEHFDgw+GuY5hi89SP1t0yFnHBON3fnLqHGTZSw3tPTimPS6Jt7T6Ftk3tPv2lnkaflQ8Tb8rDKgC4Rc0/uYkXOecKtryO8Tf0uo7IwEeyc9xOr6AYe5BkfyrijNh19bcC5NwXZJvk3fLnMfW7gdIvepo5lnOR/T9pF+zJgC78az5BZ5tvikILK7VtZ+d+tlxK8U2Nu7CDtq+V9diuqc5B8CeqEva+6a0qvwZ2hDN0HgikaMnKt29VkojGSon5kPBdX59Hxi/Q9Q5Y14C42h41XkbWoBSOpu2+azFEZ1ktSmmg0Nd+x2Vtjxfua2NUjStcdAZvyCJa8zdlIk/0YFfAmVAsfMjykXqnbyiBSL+5xebkoxixOM/2eveBM5GU8Eb8tYlIFnECoEY3o2qe/H3P87QxDnOp9/EqMBQDuKpsr0zCHlNjoJtVK6+Kdj3R9+Dcr6VxaGK8euJbC+C2BqgY5/iHBVAqS4+zTTr+zbWz8ufu+HUkP2lQJx4oSPB+2I+qeiPXplvFbYotC2+n21K8A1Ud6m5DlFf4BJzk7Bz6KKmZ20cPSE0PFy7T5er6Ut8tUW6Da29oLk3ybeotc/5STwTTXeyNpHPeSY9Lpl34ohafMeMR/gpnjmO4prsNF+4/XN/uE5vaDyDynhZsc15nPPeJN6cZ+aj+rX6qtpsE35hAq9ovqNaE3HTJrHP+kYDzMm8jmkO87T4zsTdtGUO1EwCzK9/8uVxoUVepm1/6W+6si6/sDT3Th4aVCv88rMX/mwhtCFWwT82ZqHjaOpgX4AKwelsxKHZspchEPsokk/dVWcV+f2d4eyuUem/ghu+buapUbT7GiQtE1qOKM1cvrLKUWacsszvySK+pKQafAOfws1LQccxYKx+CK3bIRfTrqWAWmv2B9kbCrrG3AXGD6GCbocSvw0YKre4NyjJ9zyp0BBFbTnHV79oXH81lAH/bbzmRUXne3PD2VUQAXYYowD1vOjwwsKcqNnHiHCzyJCpQD6KyhM/VOgYJ+fRWIbqVKymW8w+j7QQJZZERsWWiUPxZhh+zbPzPAZueUXwk0+u3Egv5qW+wMhhFIw95b9PPLap43OwzyM+su1nkYs0+uPxdfdTZq9YSvhwC+e7S3kHb+NGKdwRVQw8UOHdUFBI0M77RIQR+fEr1JKVQ5sTfJxd14wKn2S4yrQ08JYWPs2gW3N97gE+cqTPVz/W1ekd5kw7HxT9LyQMcEtLzz27fJvwG6QeFU9r7+6rfi0+uoKBJpjmeHEURRQAcp69vuJ54bHNezTS2l88+OnLTBvqHV+/fPW66m8OpXMvKQGbe8PGXxVs9W3Nv2uq40yYNW36nTBBS+/X8GuuW86UPQqQUrOuhx7V8cbj5IG5lVTPA3/66QkhknztzuN37gsDp2dIwLLSW+SeylgA2cYboB1gFVy5MQO9D6Pdf0AFEPURrdSLyXk+7RkM68gYtfloJer8Crh+eSfe8wDa/T9IUpaw35IPEU8Yp1wfuiRmLy2dZCviM7jB8PxwKZSAlozcJyG2sRrNwm30SUMOTockUNlDlF0XzFNG0hHuuLkG5rmEbcUDW2u/8AVj5D6uou/MCQvh9rK5nH28edpHXIcR3Hh0wFdJr3AMX69oeoYIkfMBg9xE5A7+d8wjSqLbTYyokENFg31AoRa18oxSRnh1cfJg/kQFIZIrH9EKaGVD8QtmXNwL6fN4UoQgw8X2h8qT/NGfXXkn3d2nw2RUqFWceQpEfwvi48VdDRrak6cgAfaYN6ue4o81JrYXeu950rMIib06uQkidiODeOyZwgVxcYe3+byNNif4Bqr+e+1/QMk9AKpgYkOa+GrG9lveaZtIjw+1j8y4lCP/HcXnlBaMn0Xqddc0B4XJtw7JNzzpoKDhR2eSriMYOJN0iSQbWnxT+6/6J+yiYNJjk/0NoGRPGvDk1CvEOu7x2Kz65urmUUzVbxQ194riEXqmeO43FUF4UEWzHie+mrPddwpmPornocck97bmP+X411e8icIUviiTzv7oyI9+82qwPafucnr/Ado2T3Rgqdq0Y8Nve92hEYVLTl568mpoJ1gIdY1fw8zTEfTfV+oVEj9YLSHEoXydVWyTrYi092Do1zHu9Hyoa17Ce/6C4k0t4rPnI03FNF4x7ZA030Lx8k+yFfOJzqkYDb6Dz/TlJKTjTeV4sIp5bnjCsFAZ+Rn3wnROOegzmLEBktQB9dtpk+VFlBEreACHsM/w5GgJWQrq3eiNa1QQj5vbOG0hlBlPNF33WZbp+1Ep9wYrwXmYqBsQSTq3+Vh49EOIHBHuEcqoVgqqJ6wSeUAswOgi7LAgFYzvbf2lhPOL84MPEEOueMz5MiLMzfwh+YTcqDiVJvZCOVzXlVO58SmMi5E/fcG4PLAX+l4hNOrY+CokxJ5vXPUOMvhtoa815j3nH57CuNQY1pkXdW+KiYwln2wVtAuCb6A6p54BxoJWij3h1vas04mlT13+01PqOA+L47UPz7wMU9oBaKdDm6iDKmjxzZ9D/nOuuY6P5NvkHW0tPdqmOq6ZT4D0K4LpDoV9iKjt3++x6+6Ouq4dHrly46C90xNAzU6kPDdYdvuW5x2/2U7A5EfU3KuOT37/ZFzLdMcz3zE1/kxwz6k65jyG5j77n6Yc+/7Id8a8EazjZbuP6rkDbP9wF9ahjzhx154bcNNxn5yaSEvcukC+FG7+M73CxqTT5VBmOB8pkeiXJV+7h+MF5RL+HomuP1xY0Ga6Tl8CMy8Czn4FxgBHAogf9ZYS0Hz5lyOup5HMl0e8prg0zNY6603nUJ6J3Ek64PmGfkPheXVMecN4gnJtfMo17ch5MG0ZJMT72RuuQ8wZk2sXxJWR73Zg6Bgj0yURy0sRCGJONHHQjn2m8drnoEJ4ZvP1yxsauvyaPl4XUb3rzUBbOOUC+w259Yxg2KHriLkwr38SiIxdpj+ZJwo4x6JwEVcEd3o/dNaJRwjzvPB+VF5xk2wxsBMlSPKYNKIsUMrbjxApT/jKFQUXNzz0LqAvbjm/F3E44fO/fqUryo+psHUhCQmD9NwPHjiKihMWbgKiIdffOuCd6z+DIjD8jSuvoSfovtiyIjXrMXc2ZtTLFyXunYo/KOnmRSbhGIrRFnS/3RB8fOK6NaDzU4Dl6kExPOpYP4O0d1TUP6wefUqk14Oa2bNerNYbdiPi/g9Ky0ERTW8czbzu36qa/yeSe0djz3KCDb+twXfs/i2iTyw8d32qStu/9yPXv5f32urq9EGPXzWDK7AvpX/Ncddp2fRnBa28Z68fpc33bPKt8JRPGLCJvOC9x55wu5Zh0yn7vjP2qCPmnx5a3Oaunc/u+j2+73+6YIfvq77JvKY3nje6qs0V8UFfLnwDNz3OQNmDWvlBKHPfygsclwpHGxJtf09KZ473bOLpA5fBzEWQEEvghrt1zr9P6R9LQp9KvRaeME75RjwAWjKsqyBrgBIwD2ZlF+gzzqLd3ye56mLNc5IulhPUoYrbAnhby+GhH8CNH0GReCd74zsrct12Q85v4HYVijWp8Y5L1KJBfKtHmVLECav0Jqyj9+ynzzdN/w9UGHOhLjen4eqpOuJIqvtb7gmBvBbznOQxjnDJaZSw519hF0FsHfEvB3/7xZbGLVeKSYRNMdw310jLZSFf+uDFYOHn3TcKAqUhroy4ORPmbkjIKf0ZbwmO/+iyD3IK/IjI9yqxNkEUeuaS1NkUVIUUXGcvYZGTHIz4DY3qWbTzeuCEhWimHJ1ZpAaf5yk7+gALpiwMjA3k8UJGK6HdEHwD1Y/NfEZXtAtIe88Nl5ngmsNwqGHKn1cd/8srFowalQmmwwfvWF3977+fhmn9h6TN/x+Rdc0j+E4+uqvJt469Cbp+bX/WjWeZ6GQ9om/Gz3Lan6Ngbv8es2+e1OXum9Ymvb5Bj079sN+yjfsj5M5gqv4JE2z4jUm/fuKvCX77cwHTHmGSr7MIl+K587QX5dpI+9fzmtx2e807959RL+Pf9/jl1j0zvZ/twbrsoZr29lnX604Kc0uwCn6+//tjE19fW2EpzFjyNcw8hu6socUuSquQFOUkrXlMdD6lgk4lsv7LdQm8nQTxNdz41VI+82jK40QwPD/GlR/YJkG5yFmp8UrNhQhm4pVKo7BAv+HPdKtOQNslYmw5RV5IKa4yE6YwHq+/bc7VHDQfpi+GErEM6urf1mZMSAH7IR2+W4zW3n+udShPTP3eY6DvP7fpulZZedvBf+uveWNDrToSOU4hcrzWP3RhbVyyzyGvVrwc8PquCBYtxIlPzb29QMSwnlIQQMTIjBX2lCmOdoS05JHRK24h4RJAX33ChF4UuloTJ3w89eU0wigqeRHYtSuEkDCToKGC952UlfdBCdj//SvWsub0UVTo00ni83zSXZLAPCNUYni+UYS4dFhkjNYU/hy0K4JvoPb+W2eqqna+ZTaj21p3Q5ttus+8sFfXrv+a/+vD+0Slrb7z9rnVd98+Uknl9gA1dw/9NpjmOimLqFvbnE3c7V+KCHwqaxP7rKWlt8PNuCkrPaSy60DJ/kvH5l273P33Izvfe2uk/dlXo0d3W3bCSQ8v/eXJU6KETJw3K9vvsWm3vpRZvBMJDCfS70VFbeZUZ7Nc03THsddnlobf0+qLHnlsEx9V8Maj5DiFLVJVfnFjpn67XV+ZMmmPuVMizTYe3Pv0kTspOz/bjXXazfHgozpmPmp2dVqFgw6dd2bJBKEtsBxuvKcL9NqJSIUx6rAESkC484sOLwcEP/iraHuWxrO7L4WZ/4SWgS+BG+/qxFcMYxwuocOv4iJWqsMp+OENxG3v+FSb+e8qPbcr7d4NlSPmLc+P86/oiRr1oTZjzBcwdT2UAW/mps19J3f97gxwAh0uKjY9b+HV80J5Ru1yaKD9q1k1HDi3efoH0AZ4adWVGx9vuOYaBH1nesj/zg0zIe6ro7hJZAIlUoaofsklmwGTDY94okjVQ+VGw/82xwkjhQlPPKwhonBxPBwUJSuBmDyccXIER4aCeXqjHRgoxhOfrPOti598cuWbmpL9PppzQESfPjHENc8IROBEHJZA59ffgRLx/bcvX/noG1cfTrtXQez0bQc8Yi/6OO5EwceAFxUM/ncqAN+D6j0RHMr/HUiCdvt9bfrlKX8Fwxez6RvfDrT3c5ibX681HNPzzkc+yZdH/em/6q/r2iEqg19TR7sXiQodzBtjD5+IcIYgPZtEYzIkrKHNy6Cz+2t55nG87baV+cpbevJxI9J65v4UpHob+TRD8yMbmppO33b27Lzploweu5uaY0fooIymyu0COqrOlANjyzmzXD6Z++jbNxqF6/iVDuw5ktfu2Lxy4+u7vnf15riy6ijS/vtPOK2bttVVjKuddXcI1ipL5/gNQ/jZ8NfOSzyBpj1iEIzpQyLLmdQ+59CVdYEWopwvijPRlvAREadbN0H278YiVlABDIaxW5GIOoYuYBId+txuFnNNST/kwWHzBLqhZRSrG8XL5C0f85WZx8AA8eTPtRl3QJmwHYw7WEe8juqzc3R5EWEQU7eo4fTIeAXicFiNjM9qzOEVSSfTloJh9Cxl0uoZ1A1PoUp0iqpPuK4YeS7//Qzvx+WL9h/3PId3kcG5zzdOexbaEY6uPWcXXVPOQoan0WBqOniNFqH0kzLfNWM43Nuinx+jeJ675433kYH/vWReIV/S7hCIKYOhlSqS+Ao/sMvwhA1rT0d9xxtWXxNaoG9ytym3Uq6nWSMa/utwrlkUXLxj9JUrxhHSv/6Hb6buBRH4a69zejM18znFq/WuAQPX7F2PeAzOvULxmnng2vHMsxZfMQtaEST44sM7XHQC1/l19A70ctvI/MN91yXeQwbBaxPbk/vupZUfv/vAd676FZQB8/Y89yhEdhPVvr/3HnD/847ifeX+d96Oj86BvW8dct/z6luzlznXGS7LydPJ0S3HnQnPQ8+kZyDB3TzAjeOe+2ePR2adAq0IhHYKXlfHcl98dqlOeyaxNyC4GuCobaxnzVO7frZ+Ks6dmyuY34RRmazWaRfI5YbpCuxCBKsvPa70kcKU8WbojDdRMevpSV8KOnyicXyztu9OHxr284XyfnPM8JpB2SF/TEH6PATFegRsEq5xfVk9NI4bcMfsByEB1owZ07lpZWY3XYOdGcNhVLHeHLGG8jLGMnSqWwMR+tUI7CvafrJez770vSevXYIJBMT7fji63wCt/9866d1GmU84pdBt+0ozMeWrIx+1+8sXvwFbCAxf8h2AHU/P0Vhqo+9BibC6jpa/MNyQTwHuJ2J/z1emS8YSnDWXgOEwpmY5pH7JkZ9Fz/1wI6zYaykmfuG4+BLn+j97Qu721aguouM+eWNjXDkIHOIshMtP8A0Mg9HprNLzWBL8z6did/fKgpg6RoVhEXFjznNYQVd+U6NefV25NPZJsDtM6MnScDb1P4Y9bZ/Y+kH4Op2POOeF2ytJvm4eHObR78YXs9fd1lrvVCk4quvEgaxJOYMq/huqez8zkINPOxy6fvQfi1uRmLphAhly3hBvC0IK8yt1N0O8vTqHHzSofBlAnrKQ+0h4VDwGfrOAQgT/XIPgIwk9dq0CBN0jWAAhgu/8ZZHXDi0i+CIxZHbn75BgFArBELF36tP6BN/B3dud16OGsfOoJuPosCPa5FS8nuAzlI/gu/Hse28oAA9458qHoEx4eZ/J3ao05QJg/BxquyoUV4xF8b7yAOF2qhxD8I19Juw7aZkV12U+3n19nlScQ2hnAAZIvLllommW1y6mi3f3jJ/gi/XmkuCH0XjycRNRxSuR84xL8JG7Wvhmpn3UBE3je9w8p9U1NkTsU4PVfj9Wc6lrVFAHm7fRVIXbt9/VuNOIBGgPZjV+Uf877v0UWhkPH310x6029z+7I+98UYqnu3KB1NNH2tLcA34JinLY9+ZeXBEb9vaAvjB2X7rO4+n9PpSeoG3pbilJ0pXhJVlNubxCXcq9VO6cpTCzTV2O9oezRtKln0gXdghd28AkaYptA/ubCB7/om88h8W0ncVBe/QruNk1nRgM41+h8F5eap4WZ3WhX+OpgP++KUbXK5AhI6HLMYi8nPGZdsOdUCFsB2P3A8ZOoTIPo+oOiJpbEdd2pWjwqQ030+v6Cu3dtlpb+/By+FfsaF2lMQomZJan4ATq535Nh/vRpWei6y9SMiG8AMEXj6MIPvWr6xXEhzjjt7/YeN3/oB0T+yDGwJjUspraI5kxuszhQOqPe8Zq8YWL99rC08w7qXzPCQbj26SEYyMJ+R/S7xY9V/XIPZsvMz2QnV57SW9NbXrZKwcNTZXikCXqtxQkJZNHsknhhLrilMGs+EwoTxHfBY767lEE/7zu50+jzcl2oTl6X02FGuWX5fYYNbPctnIjO+JSWeEim+3zRsFNQhs1223w8e+/mXoaROCq3lN65RTlLdK8xxJ8Ow+3DcV7EdwP/ijfSWcuvvKf0Ib45w4Xd+/C9bOpQr+iPnQH37UIdWfgfxd9Wu8AwacdTUGlzwFvX74SyozP9p3Sa6OO5zDUjqfDrb1yQRA8uI/gu+9CFMHHANkXrs8+yNLmC1Tgn80af3jbZ2bM/+rQ8f+hCKMiCb6gYHYJPorlC/sI/vMgCX4s6k//+TEqwt9Igd3NIfhuX05b0s5CTsk914BNf+45/ZnnoBWwbuIRB4Ou/k7l6oFoDGDaGnsDBmk2m9Ym0g7RJ/V7fZbnbm9K4WUDbp69FCqMh0eM6Niv47ATa3jtRdW8eoBldoQ+Ux/LNIe9Bqgeu/2zv6t4ndoDRkKd+il8szN1bSPocH/67QsG741AiS+I0fkZnpXeoWfjMXqx329rUh+F/jC6mkHP4fRcGPaQB9G7ZHgj8pnKWB2T/7gQhDjr6Bl7nZ6yFziwB9IAn38G4ZUPR4J/MbuFgePNsMJ3XAtp9zgLWSVH3xznuAqq6HiTeVwNBvvvtv4TuHIjVBj9YXJ1FTTuyZhyBL1W1CfA9yk4E9deRWjwDcHoS/pSkICoPZ3L4FOf1N/wNbQz7Fk1ZYimNR2BnB1Cz/uB9GHr7pwrhuBjnmPrW4nr6Tn9HxG9+/VM6r8vb7o6vIrstww/7VLXBfSN+9CdPorelR+iITf6rGcgkkx6x2L7hk1p0JgzjfAqkefHNIZPbrum5us6CI9MG/2ieDx4MLjH6aavmZpTXcF5vdaT9dTXu8dZrVrRarLue6hqjSrqNe757jFl1g2uq1q3bl2Vsd+ZddZXKivNODk1p/fN9DX3v+7+tda3Y1+zG/rD3D9oWCZBrq7LpEjTzc4F0kGXyN1gpMbfLKwr24JqLcF/hk7IZFPVB9ADdTQ9C/SMwWDx3SvKRIfD8yPfu/JAqCA+GFnXQWvc8EMq+Fgqn8i2Jfxa1fMIvo/0Rwko6IVbD6KZdo35LjDlBdRzswfo7y8SLUBEgu8UY5F29BF8d0RAJP9uXBAkQO62oST4edBwyk8Hs2r+f9RYwy2x0yP4IuHPQe5N+sDevAY2PjjgulfWQBmxYuzIDplq9Qwi9b9iXBlu28BbxN61iQdv3/yZBNqOZ9u50+XkdG1Os9J8fZ9PNrycxMSoGDz9k58M6897n5LimZPTeqaXS+jtOuhOfY1/XL18m6f+cgl8x9ETxm6VAtyZxMUh1DrbUlttzay+vhu1EpEVpL4c7Q+YeXcNLzdL7R+RDFxABGwRg6q3F8O0L+BbiMFwSlUzdBiuAN+erm9Xek6HUse/FV3/NvTCEV/WU+jTVYAhyhomR/V09CVpVA3PPZ9R+CcMlHcXwfR34FukVS0njLZMqzV7EOHdlppgNxpU2I5zvS8iGwKm7MFV9CiZ8Tw1099V1L8Zbi2J0MMCeswWaFrzi5/CrETrG7Qj4B7piTsxDXck6WRXurZdSP3aj7rsbelCa9EZJC9M8I1nazE1z5skqr3NdHzt0Fyn/0URxS0JJ3Q8r0e9ru2mojqM3p7dqA37E8GgkTZutGGGtO/Gs+PxCBoSo7850nqvp8BP6XlbRGfoPeSfpJvY6/9suupzkJCw8djOF22tcJ36JPwBgLY7vY4DFWP+BY3A2bKhX4B0tPgmycULR74z9UpoRby3z+SdFcAdaKSOlCZ8GOPYg57xwchIvuJMNT5DaJrJMGO2Yo76mHo0JgIzWEzHpFjTFwJTPkdd+2DIczPewzzmzGGC79joY7QNvvmHu5p681BsQABJ8JOCjx6t5Laqv5Bu9CVU89oguQfHnsq8g3pTDvVnNNQeyjU3v9q1c+YjrCuOSC8dM7ymqnvNYHp2Dk/x9CiFsxF0m2vAJvYWoTdoDvMeBx02gK5cDYZtLsefmbXSbUWGNzHW2id6RNrHZTmd/4cr2uNrcw3v7HDrk19CkXjhlz/q2q2p43ZpVEZneM0hjKd2VnSVcaE87poOWWUTyV+Qa2anbvP01BdBQiIvOA6FiWmSljMdaKzMCd1EerpuAE1RWnmJaBA5ZTfBpuoONBChQqOpIW0CtV4FrWFLb0fj2p/qUV+b29zQWdGwC/WVnWhkh/pTb6FTIhD1OtPXgqKvyTU0rZkHs+pBwoTRfp/33lS9sSmXquFV7rc7m96Q3dRZyc75TL6HEqWBj6xTn/mmqbPCeFcNs10ppAOylDmyYsz8Y6ncGkVRl29cX7/8yHbynBnzNBfOhfSypvXuu9CUeTt7UAsUpg7BF232HWV8pA2+Q/hFzX4EwbfPSYKfBJvOPXzXNIO/USP/gDtDSGgvi+7OuBGJv67rjC8hLdInRPw/0Tks1llujc75Rqbo9USw6d4p1SQZdlSR0cONAyij3VHHoSQV9kaOdq6ebb2nkbfC0Sp8Dm9WJlRPe/wLY+XdhvN+fBydv4oiDDDNgh1tPgdBw+9p+3Oc52i7QAO+QAftEy2HX2dBW5MDfTNp8hp1phBrT9WmcqmOKUz14FwZQsMBe6YgNYBpamdzoE13SDyz7Ovt+jpEX9exmcL/2UHlF3R9qHhf6xISEhISEhISWxq+OowIPvht8F0THSYq/kUTnfZL8FX4FqLDtU+8y+tG7ttUj8YkpanUmDu4wyTOUIlPq49MQW4McRoTCg81Q1GYp+daCqKXxmDu5g3VfQMyaBN6ZyItkX/jaB6R5ourLnvyKTcn667ey/8wak7jJpikozYBjaElm8yjQOzRdIMJkOKokrZ/R7opOwJP0X805xua8ZijhafKpqxRATMcbUEBNcuvOgM7b2bOIBcm/hoyx12A6cv6PnJd0atbSkhISEhISEhssbCNMgD8TiL8ATwQhhFhVmbYxhaq30oNvghjmKZZe+aXzJiJj/xgk4OjaJ8vREbHpsp/66wjbu+jd4McMu8k5oL1Fec0AMBepvDLM3PZk4Xs6JeOOaqmc+fmiQyY4VpukGm245jNCNp8cH3eO9p+BFcrL25DIwDMHU1wJvmaW45raRj8fhoNuK7P7Fvmg4SEhISEhISEhA9BEx0Dlg293wbfDLf/iPMUfNp8BOlFp5xovnS/vXgqdwxprk+g5hzg3SFuK/KdYyGRfS7YEp4pDvgSEZlejDo8lNXx9ppLX34HixTROBH9jd2aDifqfgLT2dGUb8bVzHPPNh9sIi8Qdc8Dju3D3gr39q1wM05W13Ee6OyutJb6d6d7vnWT9CQkJCQkJCQkWg2OiY5ogw8hLzqC61B7J86LjhUuCX5ZwetGqtlMw66gaAdQ+x5AGv2dif5uDSio531DLcIQi2ulY+r0c/RnEWnd39J1/mJOg9eqm3/8RpLFrxLVc+qIjvVrDPdVuD+R9z3BNM3B3kTa0dXSg2Wvj7Zm37eKre56x9lMBH8RCQzPoq68ybTmJzrcPvsbkJCQkJCQkJCQKAjRBt8B2gQ/5C0HoKCbTIfg2+ckwa8EDOPzpum7D+U5faCChg9YNoCCu3CuGx5xUsAMvo450vxvZpyv55wtUhS+oLEJllRt7vZVsd53Sq5n3ciqzRtwe1RSAxRkAzWO/UDXO9NTUsV1ZqxkC6izJtL41zNUVoIGC3MIn2Yb2dc9Zz2wDCQkJCQkJCQkvuWYv+95g4iXdRz28tUfQCth8WET/0eE/gAfwQ+Z6Bjg+U102gnB/1ZOsi0WthnNAvvXbkGChLEwxrv2T0JCQkJCQkLiO4O6ujr2s/+uuzjL+W8V5L+joFYj+Kjz3rYFdEj77YUltcpu2wm2Br4TBF9CQkJCQkJCQqJ94rmRI9Ue9Xscnpuz8TpAtq0RpgPsAK2EBaMmZCALA0MnQmw/7GonSiAIg7X6mh6S4EtISEhISEhISLQJXt3rvGGZBrwsx/Sj0bfGNd8PfIy6cshk8QiOvDqKqHOfX3wBcazex/id6hur6rYuGEhISEhISEhISEi0Il7c/tSOb+157hVp4O8Rif4J+KaxmtjhvX3O2x5aAVTyscXE5/lORBB/5K1P8KUGX0JCQkJCQkJColXwwbDR6WyHQT/XgF/NEfoYYd4yo4K2nKMxhXIs7U2ECuLzQyYO1Dk/0jd2AAnMbri9zqgYhhGRwDA3Yp9BK0Nq8CUkJCQkJCQkJCqOt/a8YI/GDgPnELm/i7hwn3zGN5YPGn7SqyMv6A8VRAr5ObTpDqLTm1Ih5MHFBW6RfQytDKnBl5CQkJCQkJCQqBieGj6mcxfsdI2m505FJujKQxpvBHR9zZvbztXZ3NW0dwJWwBb/q4PP2YVzfWKwPt6IgrUeqlUb7pshkAxmuvrFS3OLoJXxnfCDLyEhISEhISEh0br4cnBd1cqem04AHaYS4+yJ6JFkcR6qs3CU5UbeJvjmgeWHXmE4adiL11wPZcSaQy7svJE3vAXWQqhW+fYsAHSrxr21UdE/SyC40JW38q0/Lp19oecjtxwArQxpoiMhISEhISEhIVFWvLLH+SOW99j0tM7hH5zIfZI0XFDSi+p6nfNrP9jv3JOgTPhs37N6beAND3KD3IvlCx4wxS1Eu9fJG8BtzT/j7DloA0iCLyEhISEhISEhURa8uvt5w14ePuVe4PoLxHlHBM/zPIY2Io/2Vog1wSjhLR+OmHwJb6H1ycLDxg9hVan/0O5BofJjcvbXOW7Jq5jEDJ+ANoA00ZGQkJCQkJCQkGgRntutrkuabTyfdNaTAHmNbaniM8lxzVkw2kTHOuSCSQy3z1n+5O08n8whP3uXF6d9AUWAj6xTv1BXn8Q4XklH3RG8PP1mOGGTGzMuiqY5wnXkMdGhM0t7ZFYPwtmzNWhlSIIvISEhISEhISFRMl78/oXHAdeuIlI5EG3bEIfguwTe3Och0l+I4BtgfoJvnNisANydVfUbd5p73bsIGDsu8PGIUzum07U/48AuoLx3EgUHXx0CNvVOXUL1E887NvsYTfAZwhXdHr75YmgDSIIvISEhISEhISFRMl7Y7fy7ifieIJLlSILvkOEoDb67H0fwwZuAC+6kWMMb/Zc6wLMM+WcK4Eo6maVTXShKf2T6bqT9349za0QBhHx9GnwAgZj7CX5YALCuw0vjn5Tr5EO72apUbteOD976EbQBpJtMCQkJCQkJCQmJkqFx7W8qshOC4aEFo+wDbp/AuHiR4FEhBp/emjTlWxuEXQdPkLBINtp5YyB9Uv02pRcIfFSNMFB555CEkqfbitwbkJNsJSQkJCQkJCQkSkYHddOLRLVfM/ZDZJhD5BpSGI5WICACMTN2eexB+ITt7CYmeoFK8Lxhf4I2hCT4EhISEhISEhISJWOPebOypOu+JG4x2CCZtyeg5ocvkacmx5hIZgzkvrg8kEPcUWyxEFFRUajAiCiWCc9D3R+96VVoQ0iCLyEhISEhISEh0SKMeOvqZxHwXmOfc78veZcAc5t4B/zNF4KjaxfzsvLwMjKNcLhn7S9mzp0CYzT1Yn3jzHe868FYycE4R3k1ppT0FGhjSIIvISEhISEhISHRYjRv1scTDV/m8yfvm1BbmNLzCIIOYX7uzcoNnOA8zxiCsHJV1NwA05womD5cRHTedgZErC/r8tCMz6GNIQm+hISEhISEhIREi3HQp9esYghjkWOzcexMQvU0+IW19uhXiYub0BYi8o1arCoqLNZOPxjZqUMic3z8sIfSPA3aASTBl5CQkJCQkJCQKAv2nXfNQzqDq41925GNC57IV044DiZ1emPF9m3MPBOaBHGMq5M/v/D8AKOO2IA6PxEf+cdGaAeQBF9CQkJCQkJCQqJsaO5Q+wcO/K5Ix5YFwYU9v2lNPp7vWtnYbJ5zTFJEKJzzmGjcmQUQnTeNPIzrNefmt6GdQBJ8CQkJCQkJCQmJsuGguXW5pVsvPpn48PMRLmZMcNFuB/yTXHloDwJxhOOQdt5ewCqPvX+sqY+b2tv3jwigPyW3hBAK/VOvx266DdoRJMGXkJCQkJCQkJAoK46bPVtr0nM/od25xnG8x/p4TXs+Iu6a3cSZ1QTt9xPZ0CeJINTZcKiDfFrvx2/6A7QzSIIvISEhISEhISFRdhz0zrR1Gb3pOCLCr4jhQW17EC5n5xiRxo7jcOx8UkAEuOBJJ/K8cM7n4jMCiDijz+aPzod2iKKmLUhISEhISEhISEgUg1f3mtCJaVX/0oEfzWyn9abHenQWp/KMYcwwYaqteV6M74bbW9McJxCGPBBHiMsCcQB8kZzywVcWdy10rHWsMMdQ+33v/954BSbx/dkGkBp8CQkJCQkJCQmJimHv12Zs6JPKHU9ceCYXjV14tOlMcYw5ma7am4RbOE7+ML6aGP8vtvrvTZe3V3JvQGrwJSQkJCQkJCQkWgWvfv+8MUyBPxAB7Wscm9pxWz3uaOntBaPAOW9qzkWNunvOr8EHQYPv5eXX4Lt55dHgi3l4+5jjCI+wZn5u32dnLoJ2DknwJSQkJCQkJCQkWg2v7D1pcEpTphLFPk400xEJvrkPAhFn0QQfbIIvOrlxCb4dFkXwxXjgSxs+R2W/j5xd2veJ6Y9gsQMMbQRJ8CUkJCQkJCQkJFod8/a88HDOs5cRgf6+n+B7dviOBt8AC2jkATxtvEjmHeLvngcvHTLPqb5o6x9J8BE+13N41cD9u/8N6+p0+BZBEnwJCQkJCQkJCYk2AQeO7+w55Sc6wgXA+d6MOQY7DmkXyHucmY4QxwlzRwEEocDNTyDxbjKPEWdp/3Wm86sHpHEOzpnRBN9CSIIvISEhISEhISHR5nh/rym75ABPBNB/ReS7T5DgM4G1RhJ8+0Qcwbe2jpkOD5zjHyEoj6g63Nb3wK4Lvm0a+yAkwZeQkJCQkJCQkGg3eG5kndqjacOeGuAhDPjBHPQ9ELDGdXEJfvt6n1tLBJ/mP47g028DgPYk4+wF1JSnBj8/7SPYgiAJvoSEhISEhISERLvFB8NGp3mnftuAgjsT0d+eyOvWpOXvTey9O+1XEe9PmxFdH/dgL6GlAWNYzzlfixwXq8g+5ZD7TFFybw3Uei/GuXU5kJCQkJCQkJCQkJCQkJCQkJCQkJCQkJCQkJCQkJCQkJCQkJCQkJCQkJCQkJCQkJCQkJCQkJCQkJCQkJCQkJCQkJCQkJCQkJCQkJCQkJCQkJCQkJCQkJCQkJCQkJCQkJCQkJCQkJCQkJCQkJCQkJCQkJCQkJCQkJCQkJCQkJCQkJCQkJCQkJCQkJCQkJCQkJCQkJCQkJCQkJCQkJCQkJCQkJCQkJCQkJCQkJCQkJCQkJCQkJCQkJCQkJCQkJCQkJCQkJCQkJCQkJCQkJCQkJCQkJCQkJCQkJCQkJCQkJCQkJDYcvD/7Yz2NHzopX4AAAAASUVORK5CYII=;" vertex="1" parent="1">
                    <mxGeometry x="130" y="340" width="200" height="50.53" as="geometry"/>
                </mxCell>
            </root>
        </mxGraphModel>
    </diagram>
</mxfile>